<svg width="21" height="20" viewBox="0 0 21 20" fill="none" xmlns="http://www.w3.org/2000/svg">
<path d="M20.2399 18.6713C20.6592 18.6713 20.9992 18.9687 20.9992 19.3356C20.9992 19.7026 20.6592 20 20.2399 20H11.1284C10.7091 20 10.3691 19.7026 10.3691 19.3356C10.3691 18.9687 10.7091 18.6713 11.1284 18.6713H20.2399Z" fill="white"/>
<path d="M17.1895 0.0689895L17.2367 0.0697999C18.2269 0.0930062 19.1702 0.486229 19.8696 1.16379C20.5843 1.85623 20.9877 2.78885 20.9996 3.76341H20.9996C21.0131 4.63561 20.7081 5.48083 20.1489 6.15475C20.1116 6.24153 20.0576 6.32238 19.9879 6.39253L19.9774 6.40292L7.42401 18.5619C7.0384 18.9384 6.51045 19.2228 5.97658 19.4321C5.43073 19.646 4.8235 19.8028 4.23325 19.8967C3.6453 19.9901 3.04641 20.0256 2.5184 19.9808C2.0383 19.94 1.46155 19.8213 1.05746 19.4741L1.03835 19.4574L1.03599 19.4552C0.608761 19.072 0.471031 18.4857 0.425419 18.0178C0.375684 17.5076 0.416647 16.928 0.518176 16.3614C0.620292 15.7916 0.789035 15.2051 1.01409 14.6779C1.23494 14.1606 1.53091 13.6509 1.91337 13.2782L14.4651 1.11469L14.4794 1.10109C15.209 0.429006 16.1791 0.0573828 17.1895 0.0689895ZM17.1706 1.60562C16.5784 1.59883 16.0092 1.81531 15.5784 2.20934L3.03813 14.3618L3.03816 14.3618C2.85911 14.5363 2.66015 14.843 2.47989 15.2653C2.30383 15.6777 2.16527 16.1541 2.08101 16.6243C1.99616 17.0978 1.97166 17.5353 2.00461 17.8733C2.0359 18.1943 2.10703 18.3106 2.11574 18.3276C2.12905 18.3355 2.16423 18.3542 2.23306 18.3757C2.33372 18.4071 2.47468 18.4344 2.65679 18.4498C3.02181 18.4808 3.48412 18.4584 3.97639 18.3802C4.46636 18.3023 4.95838 18.1734 5.38172 18.0075C5.81553 17.8374 6.12526 17.6488 6.29931 17.4782L18.6571 5.50858C18.6911 5.44433 18.7349 5.38411 18.7879 5.33005C19.1916 4.91872 19.4158 4.37358 19.4138 3.81152L19.4136 3.78475L19.4135 3.78172C19.4064 3.20721 19.169 2.65836 18.7479 2.25046C18.329 1.84461 17.7621 1.61244 17.1706 1.60562Z" fill="white"/>
</svg>
