<svg width="20" height="20" viewBox="0 0 20 20" fill="none" xmlns="http://www.w3.org/2000/svg">
<path fill-rule="evenodd" clip-rule="evenodd" d="M4.45553 3.74543C4.04487 3.54194 3.76465 3.54715 3.59479 3.60546C3.40166 3.67176 3.18564 3.86392 3.04258 4.30673C2.74869 5.21638 2.88766 6.87791 3.89228 8.88715C4.04665 9.19589 3.92151 9.57131 3.61278 9.72568C3.30404 9.88005 2.92862 9.75491 2.77425 9.44617C1.69554 7.28875 1.41784 5.26973 1.85312 3.92244C2.07464 3.23677 2.50967 2.65636 3.18893 2.42318C3.66173 2.26088 4.16934 2.29573 4.67822 2.48255C4.94016 2.11206 5.37684 1.875 5.85987 1.875H14.14C14.623 1.875 15.0597 2.11206 15.3216 2.48255C15.8305 2.29573 16.3381 2.26088 16.8109 2.42318C17.4902 2.65636 17.9252 3.23677 18.1467 3.92244C18.582 5.26973 18.3043 7.28875 17.2256 9.44617C17.0713 9.75491 16.6958 9.88005 16.3871 9.72568C16.0784 9.57131 15.9532 9.19589 16.1076 8.88715C17.1122 6.87791 17.2512 5.21638 16.9573 4.30673C16.8142 3.86392 16.5982 3.67176 16.4051 3.60546C16.2352 3.54715 15.955 3.54194 15.5443 3.74543C15.425 5.11299 15.1342 7.43617 14.4405 9.50105C14.0631 10.6244 13.5517 11.7173 12.848 12.5398C12.1338 13.3746 11.1936 13.9583 9.99993 13.9583C8.80632 13.9583 7.86604 13.3746 7.15183 12.5398C6.44819 11.7173 5.93678 10.6244 5.55937 9.50105C4.86566 7.43617 4.57483 5.11299 4.45553 3.74543ZM5.67374 3.30567C5.66712 3.2188 5.73347 3.125 5.85987 3.125H14.14C14.2664 3.125 14.3328 3.2188 14.3261 3.30567C14.2298 4.56988 13.9612 7.0026 13.2556 9.10297C12.9021 10.1551 12.4538 11.0778 11.8982 11.7272C11.3532 12.3642 10.7349 12.7083 9.99993 12.7083C9.26498 12.7083 8.64664 12.3642 8.10165 11.7272C7.5461 11.0778 7.09775 10.1551 6.74429 9.10297C6.03865 7.0026 5.77002 4.56988 5.67374 3.30567Z" fill="#E6007E"/>
<path fill-rule="evenodd" clip-rule="evenodd" d="M12.167 14.8919C11.7308 14.3072 11.0046 14.2109 10.464 14.3268C10.3177 14.3582 10.1634 14.375 9.99993 14.375C9.8365 14.375 9.68219 14.3582 9.53586 14.3268C8.99528 14.2109 8.26907 14.3072 7.83283 14.8919L7.1593 15.7946C6.44164 16.7564 7.12806 18.125 8.32813 18.125H11.6717C12.8718 18.125 13.5582 16.7564 12.8406 15.7946L12.167 14.8919ZM10.7261 15.549C10.8367 15.5253 10.9412 15.5292 11.0213 15.5513C11.0977 15.5725 11.1402 15.6059 11.1652 15.6394L11.8387 16.5421C11.9412 16.6795 11.8432 16.875 11.6717 16.875H8.32813C8.15669 16.875 8.05863 16.6795 8.16116 16.5421L8.83469 15.6394C8.85968 15.6059 8.90219 15.5725 8.97858 15.5513C9.05863 15.5292 9.16316 15.5253 9.27373 15.549C9.50761 15.5992 9.74983 15.625 9.99993 15.625C10.25 15.625 10.4923 15.5992 10.7261 15.549Z" fill="#E6007E"/>
</svg>
