<svg width="26" height="26" viewBox="0 0 26 26" fill="none" xmlns="http://www.w3.org/2000/svg">
<path d="M19.3048 9.09669C19.8035 9.09669 19.9285 9.22264 19.9295 9.71855C19.9295 10.1603 19.9383 10.6041 19.9295 11.0449C19.9245 11.2279 19.9875 11.2742 20.1596 11.2673C20.4744 11.2545 20.7912 11.2673 21.107 11.2673C21.5152 11.2673 21.6648 11.4149 21.6667 11.8173C21.6667 12.2867 21.6746 12.756 21.6667 13.2254C21.6667 13.3926 21.711 13.4418 21.8792 13.4379C22.3475 13.4261 22.8167 13.432 23.2859 13.4379C23.6893 13.4379 23.8349 13.5884 23.8368 13.9978C23.8368 14.4583 23.8437 14.9187 23.8368 15.3753C23.8368 15.5465 23.8742 15.6105 24.0582 15.6055C24.5363 15.5928 25.0153 15.5987 25.4934 15.6055C25.8466 15.6055 26.006 15.7649 26.006 16.1202C26.006 19.2432 26.006 22.3663 26.006 25.4894C26.006 25.8574 25.8397 26.003 25.4374 26.003H6.69041C6.19264 26.003 6.06771 25.878 6.06672 25.3811C6.06672 24.9393 6.05787 24.4956 6.06672 24.0548C6.07164 23.8708 6.0077 23.8294 5.83653 23.8334C5.36729 23.8442 4.89805 23.8393 4.42881 23.8334C4.055 23.8334 3.89957 23.6789 3.89661 23.3099C3.89661 22.8317 3.88874 22.3535 3.89661 21.8753C3.89661 21.707 3.85136 21.6598 3.68413 21.6638C3.21587 21.6746 2.74663 21.6638 2.27739 21.6638C1.87505 21.6638 1.72847 21.5132 1.72749 21.1039C1.72749 20.6434 1.71962 20.1829 1.72749 19.7263C1.72749 19.5542 1.68912 19.4892 1.50615 19.4971C1.17266 19.5118 0.838195 19.504 0.50471 19.4971C0.151551 19.4971 -0.0078125 19.3367 -0.0078125 18.9815C-0.0078125 15.8584 -0.0078125 12.7353 -0.0078125 9.61228C-0.0078125 9.2433 0.155487 9.09964 0.560784 9.09964L19.3048 9.09669ZM16.0595 16.4586H10.6194C10.4827 16.4586 10.3735 16.4399 10.3381 16.6446C10.043 18.3409 8.81035 19.5758 7.12424 19.8661C6.97766 19.8916 6.92749 19.9389 6.92749 20.0875C6.93536 20.547 6.93733 21.0075 6.92749 21.465C6.92749 21.6352 6.97372 21.6913 7.14686 21.7189C7.94412 21.8515 8.67998 22.2301 9.25147 22.8018C9.82297 23.3734 10.2015 24.1094 10.3341 24.9069C10.3617 25.0781 10.4168 25.1283 10.587 25.1273C11.4172 25.1184 12.2465 25.1273 13.0768 25.1273H21.4129C21.5487 25.1273 21.6825 25.1706 21.7208 24.9423C22.0091 23.2489 23.2525 22.0052 24.9337 21.7218C25.1058 21.6933 25.1304 21.6234 25.1304 21.4738C25.1236 21.0222 25.1206 20.5716 25.1304 20.1199C25.1304 19.9517 25.0852 19.8936 24.9121 19.8651C24.1237 19.7348 23.395 19.3636 22.8261 18.8025C22.2572 18.2414 21.8759 17.5178 21.7346 16.7312C21.6933 16.4823 21.5969 16.4576 21.3893 16.4586C19.6137 16.4655 17.8361 16.4586 16.0595 16.4586ZM11.6907 12.1292C8.76805 12.1292 5.84539 12.1292 2.92272 12.1233C2.6699 12.1233 2.59317 12.1706 2.59415 12.4402C2.60596 15.1205 2.60104 17.7998 2.60104 20.4801C2.60104 20.5342 2.60596 20.5893 2.60104 20.6424C2.58825 20.7615 2.64137 20.7989 2.75647 20.7969C3.0447 20.791 3.3349 20.7802 3.62215 20.7969C3.84448 20.8126 3.90744 20.7487 3.90645 20.5194C3.89662 18.3714 3.90055 16.2244 3.90055 14.0765C3.90055 13.5412 4.01564 13.4261 4.54981 13.4261H20.4085C20.4718 13.4222 20.5352 13.4222 20.5984 13.4261C20.7479 13.4448 20.806 13.3916 20.7951 13.2293C20.7779 12.9501 20.7779 12.6701 20.7951 12.391C20.8138 12.1538 20.7233 12.1155 20.5079 12.1164C17.5705 12.1289 14.6314 12.1332 11.6907 12.1292ZM13.8785 14.2939C10.9273 14.2939 7.97615 14.2939 5.02495 14.2939C4.8105 14.2939 4.75738 14.351 4.75836 14.5616C4.76721 16.068 4.76328 17.5754 4.76328 19.0819C4.76328 20.2823 4.76918 21.4827 4.75836 22.6821C4.75836 22.8986 4.79574 22.9911 5.03282 22.9695C5.28483 22.9473 5.53829 22.9473 5.7903 22.9695C6.02147 22.9891 6.06869 22.9065 6.06771 22.6861C6.05984 20.5381 6.06771 18.3911 6.06771 16.2431C6.06771 15.7128 6.18379 15.5987 6.72189 15.5987H22.5836C22.6556 15.5947 22.7279 15.5947 22.8 15.5987C22.9328 15.6124 22.9702 15.5534 22.9662 15.4275C22.9515 15.1479 22.9515 14.8677 22.9662 14.5881C22.9849 14.352 22.9151 14.2929 22.6711 14.2929C19.7425 14.2998 16.81 14.2939 13.8785 14.2939ZM9.98099 9.96454C7.03963 9.96454 4.09828 9.96454 1.15791 9.95863C0.919846 9.95863 0.86279 10.0147 0.86279 10.2538C0.871643 12.8524 0.868692 15.4511 0.868692 18.0497C0.868692 18.6332 0.868692 18.6214 1.45893 18.6401C1.68814 18.646 1.73929 18.5791 1.73831 18.3567C1.72946 16.2087 1.73241 14.0617 1.73339 11.9137C1.73339 11.3824 1.84849 11.2683 2.38659 11.2683H18.6791C18.7509 11.2683 18.8237 11.2624 18.8946 11.2683C19.0264 11.2821 19.0667 11.226 19.0628 11.0981C19.0559 10.8186 19.0451 10.5372 19.0628 10.2597C19.0805 10.0255 19.0156 9.96454 18.7677 9.96454C15.844 9.96454 12.9125 9.96454 9.98099 9.96454ZM23.828 25.1302C24.1969 25.1302 24.5658 25.1223 24.9347 25.1302C25.0901 25.1302 25.1314 25.083 25.1314 24.9334C25.1249 24.2046 25.1249 23.4755 25.1314 22.7461C25.1314 22.5847 25.0714 22.5719 24.9347 22.5946C23.8319 22.7845 22.7705 23.8432 22.5875 24.9433C22.5639 25.081 22.5875 25.1401 22.7429 25.1322C23.1079 25.1224 23.4689 25.1302 23.828 25.1302ZM8.20634 25.1302C8.57524 25.1302 8.94414 25.1233 9.31304 25.1302C9.46847 25.1302 9.49109 25.0791 9.46748 24.9413C9.27861 23.8393 8.22405 22.7835 7.12128 22.5926C6.98848 22.57 6.92454 22.5837 6.93044 22.7441C6.93765 23.4729 6.93765 24.202 6.93044 24.9315C6.93044 25.083 6.97077 25.1351 7.12719 25.1283C7.48526 25.1174 7.84629 25.1302 8.20634 25.1302ZM6.93339 17.722C6.93339 18.092 6.94028 18.461 6.93339 18.83C6.92847 18.9913 6.97766 19.0268 7.13014 18.9972C8.24274 18.7857 9.24417 17.786 9.46256 16.6662C9.49207 16.5187 9.47338 16.4586 9.30221 16.4606C8.57294 16.4685 7.844 16.4685 7.11538 16.4606C6.94618 16.4606 6.9265 16.5305 6.92946 16.6692C6.94224 17.0195 6.93339 17.3717 6.93339 17.722ZM25.1324 17.7368C25.1324 17.3767 25.1324 17.0165 25.1324 16.6544C25.1324 16.5285 25.1186 16.4576 24.9622 16.4576C24.2231 16.4655 23.485 16.4655 22.7478 16.4576C22.5865 16.4576 22.5737 16.5177 22.5973 16.6544C22.7872 17.7565 23.8457 18.8132 24.9455 19.0012C25.0842 19.0248 25.1422 19.0012 25.1334 18.8457C25.1206 18.4738 25.1275 18.1048 25.1275 17.7378L25.1324 17.7368Z" fill="#3489EF"/>
<path d="M13.3522 6.7293C11.857 9.25806 8.21027 9.34956 6.58908 6.7293C6.47202 6.82179 6.35791 6.91625 6.23986 7.0048C5.60603 7.48467 4.8404 7.75872 4.04609 7.79004C3.25178 7.82135 2.46696 7.60843 1.79733 7.17995C1.1313 6.75403 0.610341 6.13579 0.303442 5.40711C-0.00345677 4.67844 -0.0818105 3.8737 0.0787553 3.09949C0.426012 1.48187 1.70978 0.258815 3.33589 0.049233C4.9433 -0.161333 6.20936 0.436911 7.14784 1.74951C7.20883 1.83511 7.22162 1.99353 7.40656 1.84101C9.02579 0.510707 10.9726 0.533338 12.5849 1.88726C12.6102 1.90484 12.6365 1.92093 12.6636 1.93547C13.0548 1.26889 13.6333 0.732034 14.3271 0.391647C15.1743 -0.0234641 16.1439 -0.114757 17.0537 0.13493C17.9634 0.384616 18.7507 0.958086 19.2674 1.74754C19.3855 1.92465 19.4346 1.92563 19.592 1.79181C20.8109 0.764567 22.4852 0.557936 23.8683 1.29984C25.3439 2.0929 26.0591 3.36122 25.9794 5.03099C25.8997 6.70076 24.7114 8.09503 23.0951 8.52797C22.3134 8.73625 21.4862 8.69496 20.7292 8.40985C19.9722 8.12475 19.3231 7.6101 18.8729 6.93789C18.746 6.74701 18.688 6.7411 18.5129 6.88673C17.8181 7.47618 16.9366 7.79974 16.0255 7.79974C15.1144 7.79974 14.233 7.47618 13.5382 6.88673C13.4762 6.83556 13.4142 6.78243 13.3522 6.7293ZM3.89956 6.92609C4.70602 6.92348 5.47846 6.60074 6.04714 6.02879C6.61582 5.45684 6.93423 4.68247 6.93241 3.87583C6.92565 3.07246 6.60097 2.3045 6.02943 1.74002C5.45789 1.17554 4.68604 0.860535 3.88284 0.863947C3.48322 0.866131 3.08796 0.947237 2.71976 1.10261C2.35156 1.25799 2.01766 1.48457 1.73724 1.76935C1.45681 2.05414 1.23538 2.39152 1.08566 2.76212C0.935935 3.13273 0.860863 3.52926 0.864755 3.92896C0.874838 4.72772 1.1989 5.4904 1.76683 6.05202C2.33477 6.61364 3.10092 6.92905 3.89956 6.93002V6.92609ZM25.1275 4.76729C25.1276 4.16762 24.9502 3.58134 24.6175 3.08243C24.2849 2.58353 23.8119 2.19435 23.2584 1.96401C22.7046 1.73497 22.0954 1.67479 21.5075 1.79104C20.9196 1.90728 20.3791 2.19477 19.954 2.61735C19.8918 2.66643 19.8458 2.73318 19.8221 2.80885C19.7984 2.88453 19.7981 2.9656 19.8212 3.04144C20.0513 3.96397 19.913 4.93987 19.4356 5.76207C19.3912 5.82735 19.3675 5.90449 19.3675 5.98346C19.3675 6.06242 19.3912 6.13956 19.4356 6.20485C19.7538 6.79285 20.2574 7.25913 20.868 7.53106C21.4786 7.80299 22.162 7.86532 22.8118 7.70833C23.471 7.54912 24.0576 7.17303 24.4776 6.64042C24.8975 6.1078 25.1264 5.44953 25.1275 4.77122V4.76729ZM9.99181 7.80673C10.1335 7.79 10.2948 7.77622 10.4542 7.75064C11.7822 7.53712 12.7581 6.51972 12.9686 5.13333C13.1525 3.91224 12.457 2.62326 11.3051 2.05355C10.7351 1.77176 10.091 1.67611 9.46368 1.78009C8.83639 1.88408 8.25758 2.18244 7.80891 2.63309C7.75138 2.68082 7.70922 2.74446 7.68769 2.81605C7.66617 2.88764 7.66624 2.96399 7.68791 3.03553C7.91831 3.9754 7.77401 4.96807 7.28556 5.8034C7.24902 5.85798 7.22952 5.9222 7.22952 5.98789C7.22952 6.05358 7.24902 6.11779 7.28556 6.17238C7.8758 7.22423 8.78182 7.74671 9.99181 7.80673ZM15.8942 6.93002C17.9197 6.93002 19.3146 5.24549 19.0018 3.35433C18.8884 2.73902 18.5873 2.1739 18.1399 1.73662C17.6925 1.29933 17.1208 1.01133 16.5031 0.91216C15.1682 0.727176 13.8756 1.39036 13.3296 2.53568C13.3036 2.58088 13.2906 2.63241 13.2922 2.68453C13.2938 2.73666 13.3098 2.78732 13.3385 2.83087C13.5895 3.24949 13.7554 3.71358 13.8267 4.19651C13.8979 4.67943 13.8731 5.17168 13.7536 5.64498C13.7339 5.7081 13.7333 5.77566 13.7521 5.83908C13.7708 5.9025 13.808 5.95892 13.8589 6.00117C14.4619 6.61122 15.1898 6.91428 15.9011 6.93002H15.8942Z" fill="#3489EF"/>
<path d="M16.0349 23.3955C15.99 23.3921 15.945 23.3921 15.9001 23.3955C15.6532 23.4378 15.5519 23.3394 15.5971 23.0924C15.6256 22.934 15.5469 22.8602 15.4092 22.7884C15.2329 22.6954 15.0808 22.5623 14.9653 22.3998C14.8498 22.2372 14.7741 22.0498 14.7442 21.8527C14.7196 21.7228 14.7373 21.6451 14.8996 21.6559C15.0437 21.6662 15.1884 21.6662 15.3325 21.6559C15.485 21.647 15.5902 21.6559 15.6542 21.8428C15.7279 22.0534 15.9247 22.1321 16.146 22.0701C16.2452 22.0494 16.3329 21.9917 16.3911 21.9087C16.4494 21.8258 16.474 21.7238 16.4598 21.6234C16.4552 21.5229 16.414 21.4275 16.3442 21.355C16.2743 21.2826 16.1804 21.2381 16.0801 21.2298C15.9562 21.2092 15.8283 21.2082 15.7063 21.1777C15.4549 21.117 15.2281 20.9807 15.0565 20.7872C14.8848 20.5937 14.7765 20.3522 14.7462 20.0953C14.6872 19.5532 14.8878 19.1114 15.36 18.8359C15.5568 18.7227 15.6365 18.6066 15.6001 18.397C15.5696 18.2189 15.6571 18.1746 15.8135 18.1943C15.8676 18.1973 15.9218 18.1973 15.9758 18.1943C16.1204 18.1943 16.2887 18.153 16.4028 18.212C16.5425 18.2849 16.4569 18.4708 16.4628 18.6056C16.4687 18.7404 16.5612 18.7424 16.6349 18.7827C16.8149 18.8781 16.9703 19.014 17.089 19.1796C17.2076 19.3452 17.2862 19.536 17.3186 19.7372C17.3452 19.869 17.3186 19.9448 17.1622 19.9281C17.0541 19.9212 16.9457 19.9212 16.8376 19.9281C16.6408 19.9281 16.4677 19.9645 16.3792 19.6949C16.3172 19.504 16.0988 19.4479 15.8942 19.5217C15.8015 19.5482 15.7214 19.607 15.6683 19.6875C15.6153 19.768 15.5928 19.8649 15.605 19.9605C15.6086 20.0571 15.6459 20.1493 15.7104 20.2212C15.7749 20.2931 15.8626 20.3401 15.9581 20.3541C16.0811 20.3807 16.211 20.3748 16.332 20.4043C16.5887 20.4631 16.8213 20.5991 16.9986 20.7939C17.1758 20.9888 17.2892 21.2333 17.3236 21.4945C17.3563 21.7513 17.3111 22.0121 17.1937 22.2428C17.0764 22.4736 16.8923 22.6637 16.6654 22.7884C16.5376 22.8583 16.4313 22.9173 16.4687 23.0836C16.5238 23.3522 16.4008 23.4408 16.148 23.3955C16.1104 23.3923 16.0725 23.3923 16.0349 23.3955Z" fill="#3489EF"/>
<path d="M4.76328 3.03061C4.54883 3.03061 4.33142 3.09162 4.23305 2.77872C4.17698 2.60259 3.95761 2.55635 3.76479 2.62522C3.67128 2.65034 3.58995 2.70834 3.53574 2.78859C3.48153 2.86884 3.45808 2.96595 3.46968 3.0621C3.47261 3.15853 3.50942 3.25085 3.57365 3.32283C3.63788 3.39481 3.72541 3.44185 3.82086 3.45568C3.95268 3.48422 4.09139 3.48028 4.22124 3.51275C4.47215 3.57557 4.69841 3.71235 4.87066 3.90534C5.04291 4.09833 5.15321 4.33864 5.18727 4.5951C5.22181 4.84758 5.17958 5.10461 5.06606 5.33275C4.95254 5.56089 4.773 5.74957 4.55079 5.87424C4.37372 5.97263 4.29306 6.07103 4.32945 6.26782C4.36585 6.46461 4.27732 6.5266 4.09139 6.50102C4.01049 6.4956 3.92931 6.4956 3.84841 6.50102C3.48049 6.50102 3.47164 6.50102 3.46869 6.14581C3.46869 6.01003 3.4018 5.96279 3.29949 5.90966C3.11785 5.81709 2.96074 5.68278 2.84104 5.51772C2.72134 5.35267 2.64246 5.16159 2.61088 4.96015C2.5853 4.83223 2.60006 4.75057 2.76434 4.76336C2.89922 4.77418 3.03475 4.77418 3.16964 4.76336C3.34277 4.75057 3.46475 4.76336 3.53165 4.97294C3.59854 5.18252 3.80119 5.23762 4.00679 5.17957C4.10113 5.15927 4.18506 5.10582 4.24336 5.02891C4.30166 4.952 4.33046 4.85674 4.32454 4.7604C4.32751 4.65948 4.29326 4.56099 4.22831 4.48369C4.16337 4.40639 4.07227 4.35569 3.97236 4.34124C3.84152 4.31172 3.70282 4.31664 3.57297 4.28417C3.32175 4.22177 3.09514 4.08514 2.92266 3.89209C2.75018 3.69904 2.63982 3.4585 2.60596 3.20182C2.57137 2.94956 2.61337 2.69273 2.72651 2.46464C2.83965 2.23655 3.01872 2.04773 3.24046 1.92268C3.41655 1.82428 3.50115 1.72589 3.46377 1.5291C3.42639 1.33231 3.51296 1.27032 3.69987 1.29393C3.79774 1.30801 3.89712 1.30801 3.99499 1.29393C4.26355 1.25162 4.38159 1.34609 4.32749 1.62356C4.30093 1.76033 4.3688 1.82724 4.4898 1.88923C4.65503 1.97306 4.80007 2.0918 4.91489 2.23723C5.02971 2.38265 5.11157 2.5513 5.1548 2.73149C5.22071 2.96764 5.18137 3.07391 4.91773 3.02668C4.86622 3.02437 4.81461 3.02569 4.76328 3.03061Z" fill="#3489EF"/>
<path d="M22.1015 7.36395C22.0564 7.36001 22.0109 7.36001 21.9658 7.36395C21.7228 7.40429 21.6166 7.3118 21.6618 7.06187C21.6903 6.90542 21.6146 6.82868 21.4749 6.75685C21.2984 6.66433 21.1461 6.53147 21.0306 6.36905C20.915 6.20663 20.8394 6.01924 20.8099 5.82209C20.7853 5.69516 20.7981 5.61153 20.9634 5.6253C21.0982 5.63662 21.2338 5.63662 21.3687 5.6253C21.5408 5.6135 21.6638 5.6253 21.7317 5.83586C21.7995 6.04643 22.0002 6.09957 22.2058 6.0425C22.3001 6.0222 22.3841 5.96874 22.4424 5.89184C22.5007 5.81493 22.5295 5.71967 22.5236 5.62333C22.5268 5.5225 22.4927 5.42401 22.428 5.34669C22.3632 5.26937 22.2722 5.21863 22.1724 5.20417C22.0415 5.17465 21.9018 5.17957 21.772 5.1471C21.5209 5.08445 21.2944 4.94775 21.122 4.75474C20.9495 4.56173 20.8391 4.32133 20.805 4.06475C20.7707 3.81251 20.8128 3.55578 20.9259 3.32775C21.039 3.09971 21.2179 2.91086 21.4395 2.78561C21.6156 2.68721 21.7002 2.58882 21.6628 2.39203C21.6254 2.19524 21.712 2.13226 21.8989 2.15686C21.9968 2.17045 22.0961 2.17045 22.194 2.15686C22.4616 2.11455 22.5816 2.20803 22.5265 2.48649C22.4999 2.62227 22.5678 2.69017 22.6888 2.75117C22.8712 2.84253 23.0289 2.97639 23.1488 3.14146C23.2686 3.30653 23.347 3.49798 23.3774 3.6997C23.402 3.82466 23.3932 3.91027 23.2259 3.89649C23.091 3.88617 22.9555 3.88617 22.8206 3.89649C22.6495 3.90732 22.5255 3.89649 22.4567 3.68789C22.3878 3.4793 22.1891 3.42223 21.9825 3.48028C21.8882 3.50018 21.8041 3.55339 21.7458 3.63018C21.6874 3.70697 21.6587 3.80221 21.6648 3.89846C21.662 3.99933 21.6963 4.09771 21.7612 4.17496C21.8261 4.25221 21.9171 4.30297 22.0169 4.31762C22.1389 4.34517 22.2688 4.33927 22.3907 4.36781C22.6475 4.42637 22.8803 4.56212 23.0577 4.75682C23.2351 4.95153 23.3488 5.19587 23.3833 5.45704C23.4181 5.71843 23.3713 5.98417 23.2492 6.2179C23.1272 6.45164 22.9359 6.64194 22.7016 6.76275C22.5718 6.83163 22.498 6.9005 22.5265 7.0481C22.5786 7.31475 22.4626 7.40822 22.2078 7.36198C22.1724 7.35931 22.1368 7.35998 22.1015 7.36395Z" fill="#3489EF"/>
<path d="M9.18023 5.63514C9.33074 5.6253 9.52355 5.59676 9.62586 5.87916C9.69472 6.06709 9.91409 6.11531 10.1177 6.03561C10.2096 6.00661 10.288 5.94552 10.3385 5.86351C10.3891 5.78149 10.4085 5.68403 10.3932 5.5889C10.3862 5.49294 10.3459 5.40245 10.2792 5.33308C10.2126 5.26372 10.1238 5.21985 10.0282 5.20909C9.90426 5.18547 9.77539 5.18744 9.65439 5.15792C9.39752 5.09705 9.1655 4.95885 8.98959 4.76197C8.81369 4.56509 8.70238 4.319 8.67066 4.05688C8.63849 3.8044 8.68336 3.54809 8.79941 3.32158C8.91545 3.09507 9.09723 2.90892 9.3209 2.78758C9.50093 2.69508 9.55602 2.59079 9.52847 2.41269C9.49404 2.20114 9.58848 2.13817 9.78227 2.16769C9.83631 2.17163 9.89056 2.17163 9.94459 2.16769C10.3519 2.16769 10.3587 2.16769 10.3922 2.56127C10.401 2.68033 10.4709 2.70788 10.5496 2.74822C10.7312 2.8405 10.8888 2.97397 11.0097 3.13797C11.1307 3.30197 11.2116 3.49197 11.2461 3.69282C11.2766 3.83844 11.2461 3.91617 11.0798 3.89944C10.9627 3.88862 10.8448 3.88862 10.7276 3.89944C10.5407 3.91322 10.402 3.90436 10.3184 3.67707C10.2486 3.48028 10.0439 3.42223 9.83736 3.48815C9.74376 3.51133 9.66163 3.56743 9.60599 3.64621C9.55035 3.72499 9.52493 3.82117 9.53437 3.91716C9.53545 4.01816 9.57347 4.11527 9.64126 4.19015C9.70905 4.26502 9.80191 4.31247 9.90229 4.32353C10.0341 4.3501 10.1738 4.34518 10.3017 4.38158C10.8408 4.53606 11.1546 4.90406 11.249 5.44917C11.2898 5.7007 11.2518 5.95871 11.1401 6.18774C11.0285 6.41678 10.8486 6.60561 10.6253 6.72831C10.4286 6.83261 10.3666 6.95167 10.3971 7.14748C10.4276 7.34328 10.3371 7.38461 10.1689 7.36395C10.106 7.36001 10.0429 7.36001 9.98 7.36395C9.57471 7.36395 9.56782 7.36395 9.53339 6.96545C9.52355 6.84639 9.45273 6.81982 9.37501 6.77849C9.20872 6.69636 9.06267 6.57842 8.94735 6.43313C8.83203 6.28784 8.75031 6.11882 8.70804 5.9382C8.63131 5.63121 8.63033 5.63121 8.95496 5.63022L9.18023 5.63514Z" fill="#3489EF"/>
<path d="M16.0201 6.49708C15.9661 6.49265 15.9118 6.49265 15.8578 6.49708C15.6414 6.53349 15.5627 6.44198 15.5971 6.2324C15.6256 6.06119 15.5627 5.96575 15.4004 5.88014C15.0246 5.68335 14.8219 5.35176 14.7462 4.9385C14.7236 4.81747 14.7462 4.75056 14.8918 4.76139C15.0178 4.77075 15.1444 4.77075 15.2705 4.76139C15.4594 4.74564 15.5951 4.76139 15.6788 4.98475C15.7506 5.18154 15.9552 5.23861 16.1608 5.17268C16.2544 5.14889 16.3363 5.09232 16.3917 5.01324C16.4471 4.93415 16.4724 4.83781 16.4628 4.74171C16.4615 4.64087 16.4233 4.544 16.3556 4.46933C16.2878 4.39466 16.1951 4.34736 16.0949 4.33632C15.9719 4.31172 15.843 4.31467 15.7211 4.28515C15.4695 4.22464 15.242 4.08979 15.0681 3.89815C14.8942 3.70651 14.7821 3.46696 14.7462 3.21068C14.7084 2.95423 14.7502 2.69237 14.866 2.46046C14.9817 2.22854 15.1659 2.03774 15.3935 1.91382C15.5735 1.82133 15.6296 1.71704 15.6001 1.53992C15.5637 1.32641 15.662 1.26638 15.8548 1.29492C15.9089 1.29935 15.9631 1.29935 16.0172 1.29492C16.4225 1.29492 16.4303 1.29492 16.4638 1.6885C16.4736 1.80756 16.5435 1.83413 16.6222 1.87545C16.8038 1.96788 16.9613 2.10154 17.082 2.26572C17.2028 2.42991 17.2835 2.62008 17.3176 2.82103C17.3491 2.96764 17.3176 3.04242 17.1504 3.02569C17.0336 3.01536 16.9161 3.01536 16.7992 3.02569C16.6113 3.04045 16.4736 3.02569 16.39 2.80234C16.3192 2.61046 16.1145 2.54847 15.908 2.6144C15.8146 2.63816 15.7328 2.69459 15.6774 2.77347C15.622 2.85234 15.5966 2.94845 15.606 3.04439C15.6069 3.14072 15.6418 3.23363 15.7044 3.30685C15.767 3.38007 15.8533 3.42892 15.9483 3.44486C16.0614 3.47142 16.1824 3.46159 16.2965 3.48618C16.5591 3.53978 16.7987 3.67334 16.9824 3.86853C17.1661 4.06373 17.2849 4.31099 17.3226 4.5764C17.3583 4.83756 17.3132 5.1034 17.1932 5.3381C17.0733 5.5728 16.8843 5.76508 16.6517 5.889C16.5297 5.95493 16.4343 6.01101 16.4677 6.16746C16.5277 6.45477 16.39 6.53349 16.1313 6.49118C16.0941 6.48996 16.0569 6.49194 16.0201 6.49708Z" fill="#3489EF"/>
</svg>
