<svg width="26" height="26" viewBox="0 0 26 26" fill="none" xmlns="http://www.w3.org/2000/svg">
<g clip-path="url(#clip0_1914_4914)">
<path d="M2.60304 3.52523V3.82262C2.60304 7.20747 2.60497 10.5923 2.60883 13.9772C2.60883 14.229 2.56398 14.318 2.29195 14.3064C1.73705 14.2825 1.73633 14.2999 1.73633 13.7348V1.4674C1.73633 0.51301 2.25144 0 3.21003 0H18.4535C19.4287 0 19.9323 0.5065 19.9323 1.48911C19.9323 2.92394 19.9323 4.3595 19.9359 5.79434C19.9359 5.98971 19.9113 6.07798 19.6798 6.07292C19.0663 6.05844 19.0656 6.07291 19.0656 5.45209V3.51872L19.012 3.50642C18.7769 3.92826 18.5331 4.34431 18.3095 4.77194C17.8451 5.66048 17.1223 6.08088 16.1182 6.07074C14.5837 6.05483 13.0492 6.07074 11.5147 6.06134C11.31 6.06134 11.234 6.11561 11.2666 6.31676C11.2731 6.37059 11.2731 6.42501 11.2666 6.47884C11.2376 6.79287 11.2774 7.02441 11.6102 7.2205C12.1015 7.50992 12.249 8.14594 12.053 8.68355C11.9578 8.94411 11.7816 9.16726 11.5501 9.32017C11.3187 9.47308 11.0444 9.54769 10.7674 9.53302C10.4951 9.52004 10.234 9.4212 10.0214 9.25066C9.80877 9.08013 9.65558 8.84665 9.58379 8.5837C9.43186 8.03089 9.64094 7.43033 10.1387 7.15465C10.3593 7.03237 10.41 6.89923 10.4049 6.67275C10.3919 6.0664 10.4006 6.0664 9.80517 6.0664C8.35823 6.0664 6.91708 6.06278 5.47304 6.0664C4.53687 6.0664 3.8503 5.66482 3.40247 4.8443C3.15794 4.39568 2.90545 3.95141 2.65658 3.50569L2.60304 3.52523ZM10.8339 0.866836H3.22812C2.64934 0.866836 2.4106 1.27131 2.69637 1.78866C3.18037 2.66418 3.67378 3.53391 4.15127 4.41305C4.44065 4.95066 4.87473 5.20897 5.48896 5.20246C6.93589 5.19306 8.37559 5.20246 9.81891 5.20246C10.3977 5.20246 10.3933 5.20246 10.4042 4.61058C10.4042 4.39351 10.3811 4.24446 10.151 4.12073C9.65686 3.85445 9.43909 3.26619 9.57221 2.72569C9.6361 2.45601 9.78516 2.2141 9.99731 2.0358C10.2095 1.85751 10.4734 1.75233 10.75 1.73584C11.0267 1.71703 11.3021 1.78769 11.5355 1.9374C11.769 2.0871 11.9481 2.30791 12.0465 2.56722C12.249 3.10411 12.1094 3.73868 11.6232 4.03607C11.2941 4.23722 11.229 4.47021 11.2666 4.79726C11.2724 4.84194 11.2724 4.88717 11.2666 4.93185C11.2369 5.13445 11.3013 5.2068 11.5241 5.20536C13.0854 5.1945 14.6459 5.19595 16.2064 5.20536C16.7968 5.20536 17.2193 4.95717 17.5036 4.43982C17.9876 3.5549 18.4839 2.67576 18.9715 1.79156C19.2609 1.27565 19.0214 0.870453 18.439 0.870453L10.8339 0.866836ZM10.8441 3.46445C10.957 3.46125 11.0643 3.4141 11.1431 3.33302C11.2219 3.25195 11.2659 3.14335 11.2658 3.03031C11.2644 2.91729 11.2189 2.80931 11.139 2.72932C11.0592 2.64933 10.9513 2.60364 10.8383 2.60196C10.7801 2.60193 10.7225 2.61359 10.6689 2.63627C10.6153 2.65894 10.5669 2.69215 10.5264 2.73393C10.4859 2.77571 10.4542 2.82521 10.4332 2.87948C10.4122 2.93375 10.4024 2.99169 10.4042 3.04984C10.4093 3.16245 10.4579 3.26867 10.5399 3.34604C10.6218 3.42341 10.7307 3.46588 10.8433 3.46445H10.8441ZM11.2658 8.22191C11.2625 8.10905 11.2152 8.00194 11.1342 7.92332C11.0532 7.84469 10.9447 7.80075 10.8318 7.8008C10.7188 7.80248 10.6109 7.84818 10.531 7.92817C10.4512 8.00815 10.4057 8.11613 10.4042 8.22915C10.4042 8.2874 10.4159 8.34506 10.4386 8.3987C10.4613 8.45234 10.4946 8.50086 10.5364 8.54137C10.5783 8.58187 10.6278 8.61355 10.6822 8.63449C10.7365 8.65544 10.7945 8.66523 10.8528 8.66329C10.965 8.65662 11.0703 8.6071 11.1471 8.52495C11.2238 8.44281 11.2661 8.33433 11.2651 8.22191H11.2658Z" fill="#3489EF"/>
<path d="M12.9984 15.5828C12.9984 13.182 12.9984 10.7817 12.9984 8.38186C12.9984 7.46004 13.5208 6.93472 14.4352 6.93472C16.9254 6.93472 19.4156 6.93473 21.9057 6.92966C22.0261 6.92565 22.146 6.94777 22.257 6.99448C22.368 7.04119 22.4676 7.1114 22.5489 7.20028C23.61 8.27212 24.6754 9.3377 25.7452 10.397C25.83 10.4762 25.8965 10.5729 25.9404 10.6803C25.9842 10.7877 26.0043 10.9034 25.9991 11.0193C25.9933 14.9536 25.9919 18.8878 25.9948 22.8221C25.9948 23.7432 25.4724 24.2693 24.5529 24.2693H14.4302C13.5287 24.2693 12.9991 23.7418 12.9984 22.8424C12.9979 20.4204 12.9979 18.0005 12.9984 15.5828ZM13.8666 15.5705C13.8666 17.9897 13.8666 20.4083 13.8666 22.8265C13.8666 23.2527 14.0113 23.3974 14.4323 23.3981C17.8157 23.3981 21.1996 23.3981 24.584 23.3981C24.9754 23.3981 25.1295 23.2469 25.1295 22.8612C25.1295 19.0702 25.131 15.2796 25.1339 11.4896C25.1339 11.3145 25.089 11.2595 24.9096 11.2624C24.278 11.2732 23.6464 11.2696 23.0148 11.2624C22.2226 11.2573 21.6706 10.7067 21.6656 9.91655C21.6612 9.30297 21.654 8.68649 21.6699 8.07579C21.6757 7.85366 21.6214 7.78998 21.3914 7.79071C19.0907 7.80011 16.7894 7.7965 14.4888 7.7965C13.991 7.7965 13.8666 7.92167 13.8666 8.41949C13.8651 10.8044 13.8644 13.188 13.8644 15.5705H13.8666ZM22.5323 8.42817C22.5323 8.99039 22.5229 9.49327 22.5366 9.99542C22.5431 10.2429 22.7254 10.3919 22.9924 10.397C23.3715 10.4042 23.7506 10.4021 24.1297 10.397C24.2375 10.397 24.354 10.4317 24.4806 10.3492L22.7139 8.59966C22.6712 8.55552 22.6242 8.51355 22.5323 8.42817Z" fill="#3489EF"/>
<path d="M2.68819 14.9026C2.80639 14.9078 2.91946 14.9523 3.00941 15.0292C3.24743 15.2072 3.49197 15.3787 3.72275 15.5661C3.84429 15.6652 3.93979 15.6529 4.08449 15.6131C4.49252 15.5017 4.7045 15.2781 4.68786 14.8382C4.68063 14.6522 4.73489 14.4634 4.76021 14.2767C4.8 14.0162 4.95048 13.8701 5.21527 13.8679C5.77451 13.8628 6.33447 13.8614 6.89371 13.8679C7.17225 13.8679 7.31695 14.0126 7.36108 14.2933C7.40521 14.5741 7.45078 14.8816 7.48479 15.1775C7.50287 15.3382 7.5868 15.4055 7.72715 15.4858C8.10263 15.7029 8.40576 15.6573 8.70166 15.3483C8.83116 15.2137 9.00045 15.116 9.15383 15.0046C9.35857 14.8556 9.56404 14.8657 9.74273 15.0401C10.1493 15.4366 10.5513 15.8386 10.9488 16.2463C11.1238 16.425 11.1369 16.6297 10.9878 16.8345C10.8077 17.0827 10.6261 17.3331 10.4365 17.5711C10.3324 17.6985 10.336 17.7998 10.3794 17.9582C10.4937 18.3699 10.7252 18.5696 11.1593 18.5552C11.3459 18.5494 11.5348 18.6015 11.7214 18.6326C11.9804 18.6753 12.1222 18.8294 12.1237 19.0942C12.127 19.6538 12.127 20.2133 12.1237 20.7729C12.1237 21.0385 11.9754 21.1911 11.7171 21.2316C11.4233 21.2772 11.1289 21.3221 10.833 21.3554C10.6652 21.3742 10.5885 21.4552 10.5002 21.6057C10.2774 21.9885 10.349 22.2852 10.6485 22.5797C10.7753 22.7206 10.8898 22.8721 10.9907 23.0326C11.139 23.2396 11.1202 23.4429 10.9459 23.6209C10.5545 24.0203 10.1594 24.4168 9.75865 24.8075C9.55246 25.008 9.36942 25.013 9.12778 24.8401C8.88615 24.6672 8.64306 24.4935 8.41445 24.3032C8.2835 24.1947 8.17931 24.2164 8.02594 24.2576C7.62586 24.3654 7.42763 24.589 7.43848 25.013C7.44355 25.1997 7.39074 25.3878 7.36035 25.5745C7.31477 25.856 7.16936 25.9927 6.88865 25.9956C6.33809 26.0021 5.78753 26.0014 5.23697 25.9956C4.95337 25.9956 4.80289 25.8589 4.76021 25.581C4.71463 25.2872 4.66905 24.9928 4.63794 24.6968C4.61913 24.5239 4.52797 24.4551 4.37894 24.3698C4.0078 24.1527 3.71624 24.2178 3.4283 24.5101C3.28674 24.6362 3.13529 24.7506 2.97541 24.8524C2.75837 25.0072 2.55363 24.9971 2.3648 24.8119C1.96689 24.4187 1.5714 24.0229 1.17832 23.6245C0.992384 23.4364 0.982254 23.2273 1.13997 23.0145C1.3165 22.775 1.48796 22.5305 1.67751 22.3018C1.79109 22.1658 1.78024 22.0565 1.73539 21.8894C1.62614 21.4813 1.39101 21.2997 0.973573 21.3054C0.784301 21.2966 0.596061 21.2725 0.410717 21.2331C0.135799 21.1897 -0.000939552 21.0392 -0.00383342 20.7563C-0.00913886 20.2054 -0.00913886 19.6547 -0.00383342 19.1044C-0.00383342 18.8229 0.137246 18.6746 0.415782 18.6326C0.694317 18.5906 0.986597 18.5465 1.27381 18.5154C1.45251 18.4966 1.53281 18.4097 1.62397 18.2476C1.8345 17.8728 1.76866 17.5849 1.47928 17.2969C1.347 17.1487 1.22744 16.9897 1.12188 16.8215C1.05382 16.7402 1.02007 16.6356 1.02776 16.5299C1.03546 16.4241 1.08401 16.3255 1.16312 16.2549C1.56609 15.8418 1.97775 15.4359 2.38795 15.0292C2.46842 14.9506 2.5757 14.9053 2.68819 14.9026ZM3.91809 23.2345C3.95435 23.2349 3.9901 23.2431 4.02299 23.2584C4.38788 23.4553 4.77153 23.6153 5.16824 23.7359C5.32451 23.7851 5.40265 23.9226 5.42435 24.089C5.45763 24.3394 5.50321 24.5883 5.52925 24.8394C5.55096 25.0405 5.59726 25.1765 5.85264 25.1367C6.03226 25.1172 6.21346 25.1172 6.39308 25.1367C6.52185 25.1454 6.56671 25.0933 6.5819 24.9739C6.6188 24.6845 6.67016 24.403 6.70561 24.1165C6.71171 24.0167 6.75041 23.9216 6.81576 23.846C6.88111 23.7703 6.9695 23.7181 7.06734 23.6976C7.32852 23.6252 7.59765 23.5529 7.81975 23.4038C8.18149 23.1542 8.47884 23.2157 8.78993 23.495C8.97441 23.6607 9.19362 23.9392 9.39474 23.9009C9.61178 23.8596 9.77239 23.5644 9.96628 23.3901C10.0668 23.2989 10.0748 23.2309 9.98726 23.1231C9.81146 22.906 9.6523 22.6752 9.48084 22.4538C9.34482 22.2787 9.31878 22.092 9.42875 21.9009C9.60393 21.5939 9.74096 21.2666 9.83678 20.9263C9.85793 20.8285 9.91086 20.7405 9.98729 20.676C10.0637 20.6114 10.1594 20.574 10.2593 20.5696C10.5277 20.5377 10.7947 20.4893 11.0631 20.4567C11.2078 20.4386 11.2902 20.3966 11.2736 20.223C11.2573 20.0251 11.2573 19.8261 11.2736 19.6282C11.2852 19.4719 11.2135 19.4271 11.0783 19.4111C10.8098 19.3779 10.5436 19.3265 10.2745 19.2983C10.0234 19.2722 9.88381 19.134 9.82304 18.901C9.75865 18.6557 9.68992 18.4061 9.54884 18.1984C9.30069 17.8323 9.34121 17.5255 9.63494 17.2043C9.80133 17.0226 10.0734 16.8099 10.0357 16.5986C9.99812 16.3874 9.70583 16.2368 9.54305 16.0473C9.43164 15.9163 9.35061 15.9358 9.23341 16.0321C9.05254 16.1811 8.85214 16.3063 8.67417 16.4583C8.43615 16.6616 8.20319 16.6891 7.93479 16.5176C7.73263 16.3798 7.50518 16.2834 7.26558 16.234C6.83584 16.1616 6.70344 15.8924 6.66438 15.4981C6.58552 14.7022 6.57394 14.7022 5.76076 14.7297C5.6262 14.734 5.56977 14.7723 5.55385 14.9055C5.51985 15.1833 5.46703 15.4583 5.43592 15.7354C5.43013 15.8401 5.38943 15.9398 5.32032 16.0186C5.25121 16.0975 5.15767 16.1509 5.05466 16.1703C4.732 16.256 4.42208 16.3839 4.13296 16.5509C4.04182 16.6111 3.93319 16.6392 3.82428 16.6307C3.71537 16.6222 3.61242 16.5775 3.53176 16.5038C3.32701 16.341 3.10853 16.1956 2.90668 16.0292C2.78876 15.9315 2.70773 15.9105 2.59776 16.0422C2.46798 16.1928 2.3275 16.3337 2.17743 16.464C2.0689 16.5603 2.0566 16.6341 2.15355 16.7535C2.32646 16.9619 2.47839 17.1876 2.64479 17.3996C2.71797 17.4809 2.76186 17.5843 2.76946 17.6934C2.77706 17.8025 2.74795 17.911 2.68675 18.0016C2.55507 18.2281 2.42268 18.4618 2.37565 18.718C2.29535 19.1485 2.03997 19.3019 1.62542 19.3417C0.846243 19.414 0.854926 19.4343 0.862885 20.2223C0.862885 20.3923 0.927272 20.4393 1.07414 20.4574C1.34254 20.49 1.60878 20.5392 1.87718 20.571C1.97713 20.5757 2.07275 20.6132 2.14926 20.6776C2.22576 20.7421 2.27889 20.83 2.30042 20.9277C2.39496 21.2666 2.53053 21.5927 2.70411 21.8988C2.75517 21.9798 2.77925 22.0749 2.77288 22.1705C2.76651 22.266 2.73002 22.3571 2.66866 22.4306C2.59631 22.5247 2.52397 22.6173 2.45741 22.7121C2.32646 22.8944 2.08627 23.0869 2.09567 23.2591C2.10508 23.4313 2.38506 23.5796 2.52975 23.7526C2.67445 23.9255 2.78297 23.9617 2.96383 23.7931C3.1447 23.6245 3.35089 23.4979 3.54261 23.351C3.59366 23.3065 3.65342 23.2732 3.71807 23.2531C3.78272 23.2331 3.85084 23.2267 3.91809 23.2345Z" fill="#3489EF"/>
<path d="M19.47 17.3324C18.5504 17.3324 17.6302 17.3252 16.7107 17.3375C16.5009 17.3375 16.4582 17.276 16.4611 17.0799C16.4698 16.4699 16.4611 16.462 17.0789 16.4699C17.2728 16.4699 17.3466 16.4337 17.3379 16.2217C17.3191 15.7984 17.3415 15.3737 17.3278 14.9504C17.322 14.7666 17.3864 14.7283 17.5571 14.7283C18.1988 14.7283 18.1988 14.7218 18.1988 15.3723C18.1988 15.6704 18.2054 15.9678 18.1988 16.2651C18.1945 16.4099 18.2292 16.4663 18.3898 16.4699C19.0685 16.4866 19.0677 16.4923 19.0677 15.8078C19.0677 15.229 19.0735 14.6501 19.0677 14.0756C19.0677 13.9121 19.1075 13.8622 19.2775 13.8585C19.9381 13.8535 19.9381 13.8462 19.9381 14.5098C19.9381 15.0886 19.9453 15.6675 19.9337 16.242C19.9337 16.4214 19.9865 16.4663 20.1609 16.4663C20.8048 16.4663 20.8048 16.4735 20.8048 15.8238C20.8048 14.9671 20.8098 14.1104 20.8004 13.2529C20.8004 13.0662 20.825 12.9852 21.0442 12.9895C21.6708 13.0004 21.6708 12.9895 21.6708 13.6227C21.6708 14.4794 21.6766 15.3368 21.6672 16.1935C21.6672 16.3939 21.7012 16.4728 21.9269 16.4677C22.5425 16.454 22.5339 16.4677 22.5425 17.0784C22.5425 17.2789 22.4955 17.336 22.2908 17.3339C21.3459 17.3281 20.4083 17.3324 19.47 17.3324Z" fill="#3489EF"/>
<path d="M19.4846 21.6651C18.267 21.6651 17.0494 21.6608 15.8318 21.6694C15.6394 21.6694 15.5923 21.6152 15.5938 21.4278C15.5988 20.7983 15.5938 20.7983 16.2232 20.7983C18.5231 20.7983 20.823 20.7983 23.1229 20.7925C23.3515 20.7925 23.408 20.8525 23.4029 21.0761C23.3877 21.6644 23.4029 21.6651 22.8125 21.6651H19.4846Z" fill="#3489EF"/>
<path d="M20.3539 19.9328C19.4257 19.9328 18.4968 19.9278 17.5678 19.9379C17.3805 19.9379 17.3248 19.8923 17.3262 19.6998C17.332 19.0667 17.3262 19.0667 17.9527 19.0667C19.684 19.0667 21.4152 19.0667 23.1465 19.0616C23.3462 19.0616 23.4055 19.108 23.4019 19.3134C23.3925 19.9328 23.4019 19.9335 22.7891 19.9335L20.3539 19.9328Z" fill="#3489EF"/>
<path d="M17.3338 12.1329C16.8201 12.1329 16.3064 12.1271 15.7928 12.1329C15.638 12.1329 15.5989 12.0858 15.5953 11.9346C15.5815 11.2631 15.5765 11.2631 16.2355 11.2631C17.1037 11.2631 17.9661 11.2689 18.8314 11.2588C19.0223 11.2588 19.0715 11.3102 19.0701 11.499C19.065 12.1292 19.0701 12.13 18.4428 12.13L17.3338 12.1329Z" fill="#3489EF"/>
<path d="M18.2051 10.3991C18.1147 10.3991 18.0243 10.4042 17.9345 10.3991C17.7399 10.3854 17.4411 10.4867 17.3746 10.3557C17.2762 10.1611 17.3384 9.88467 17.3312 9.64372C17.3312 9.53881 17.3956 9.53302 17.4759 9.53374C17.962 9.53374 18.4482 9.53374 18.9344 9.53374C19.0212 9.53374 19.0726 9.55907 19.0653 9.65602C19.0639 9.68302 19.0639 9.71007 19.0653 9.73706C19.0841 10.4006 19.0841 10.4006 18.4229 10.4006L18.2051 10.3991Z" fill="#3489EF"/>
<path d="M16.0339 9.53296C16.468 9.53296 16.468 9.53296 16.468 10.0554C16.468 10.3998 16.468 10.3998 15.9384 10.3991C15.6013 10.3991 15.6013 10.3991 15.602 9.86291C15.5991 9.53296 15.5991 9.53296 16.0339 9.53296Z" fill="#3489EF"/>
<path d="M16.0236 19.0646C16.4664 19.0646 16.4664 19.0646 16.4657 19.5769C16.4657 19.9314 16.4657 19.9314 15.9469 19.9307C15.5989 19.9307 15.5989 19.9307 15.5997 19.3786C15.5997 19.0646 15.5997 19.0646 16.0236 19.0646Z" fill="#3489EF"/>
<path d="M3.4707 19.9228C3.47453 19.2344 3.75062 18.5756 4.23864 18.0902C4.72666 17.6048 5.38694 17.3324 6.07519 17.3324C6.76406 17.3362 7.42336 17.6128 7.90877 18.1017C8.39418 18.5906 8.66617 19.2519 8.66521 19.9409C8.66119 20.6291 8.38502 21.2877 7.89702 21.773C7.40902 22.2582 6.74885 22.5305 6.06072 22.5305C5.37198 22.5267 4.71279 22.2502 4.2274 21.7615C3.742 21.2727 3.46993 20.6116 3.4707 19.9228ZM7.80211 19.9387C7.80211 19.4789 7.61977 19.0378 7.29509 18.7123C6.9704 18.3867 6.52987 18.2033 6.07013 18.2021C5.61535 18.2034 5.17922 18.3831 4.85549 18.7025C4.53175 19.022 4.34626 19.4557 4.33887 19.9105C4.33424 20.3708 4.51255 20.8141 4.83461 21.143C5.15667 21.4719 5.59612 21.6594 6.05638 21.6644C6.51626 21.6663 6.95812 21.4857 7.28499 21.1622C7.61187 20.8386 7.79707 20.3986 7.79994 19.9387H7.80211Z" fill="#3489EF"/>
</g>
<defs>
<clipPath id="clip0_1914_4914">
<rect width="26" height="26" fill="white"/>
</clipPath>
</defs>
</svg>
