<svg width="28" height="26" viewBox="0 0 28 26" fill="none" xmlns="http://www.w3.org/2000/svg">
<g clip-path="url(#clip0_1914_4942)">
<path d="M28.0003 7.096V12.8885C27.7979 13.2142 27.4641 13.1699 27.1521 13.1509C26.9052 13.1333 26.8526 13.2135 26.8533 13.4421C26.8621 15.8994 26.8592 18.3566 26.8577 20.8146C26.8677 20.9721 26.8557 21.1302 26.8219 21.2845C26.6597 21.8607 26.1819 22.1906 25.4843 22.1913C23.4971 22.1913 21.5103 22.1913 19.5236 22.1913C19.4506 22.1913 19.3775 22.1948 19.3045 22.1913C19.1876 22.1857 19.143 22.2356 19.1452 22.3475C19.1503 22.5754 19.1576 22.8048 19.1452 23.032C19.1335 23.2107 19.1847 23.281 19.3841 23.2726C19.7202 23.2571 20.0584 23.2627 20.3952 23.2726C21.2251 23.2909 21.8147 23.8677 21.8249 24.6662C21.8249 24.9377 21.8249 25.21 21.8249 25.4822C21.8249 25.8438 21.6678 25.9965 21.296 26C20.8408 26 20.385 26 19.9291 26H8.85462C8.35711 26 8.22561 25.8719 8.22415 25.3887C8.22415 25.1523 8.2183 24.9145 8.22415 24.6781C8.24752 23.8424 8.83562 23.2824 9.69987 23.2712C10.0367 23.267 10.3742 23.2648 10.711 23.2712C10.8571 23.2747 10.9046 23.229 10.8994 23.0911C10.8907 22.8632 10.8863 22.6338 10.8994 22.4066C10.9104 22.2272 10.8352 22.1843 10.6627 22.1885C10.2894 22.1984 9.91465 22.2075 9.54207 22.1885C9.26592 22.173 9.05552 22.2378 8.87434 22.4495C8.70704 22.6451 8.50395 22.8118 8.31693 22.9919C7.99256 23.3021 7.90416 23.3155 7.50455 23.1192C7.29415 23.0158 7.08375 22.9117 6.87189 22.8104C6.6856 22.7218 6.55921 22.7703 6.49419 22.9645C6.40872 23.2233 6.31886 23.4808 6.23119 23.7383C6.20617 23.8375 6.14569 23.9251 6.06033 23.9857C5.97498 24.0463 5.8702 24.076 5.76437 24.0696C5.318 24.0696 4.87163 24.0696 4.42526 24.0696C4.31487 24.0783 4.20492 24.0485 4.11547 23.9856C4.02602 23.9227 3.96302 23.8309 3.93798 23.727C3.86492 23.4928 3.78383 23.2592 3.7042 23.0235C3.61069 22.7506 3.50476 22.7084 3.24395 22.835C3.01602 22.9455 2.78662 23.0524 2.56234 23.1678C2.33806 23.2831 2.12985 23.255 1.94502 23.0735C1.64549 22.7785 1.34256 22.487 1.03621 22.1991C0.846266 22.0211 0.817045 21.8269 0.934664 21.6039C1.05228 21.3809 1.18232 21.1347 1.30725 20.9004C1.41026 20.7084 1.34962 20.5853 1.13922 20.5199C0.871105 20.4368 0.603722 20.3503 0.335608 20.2659C0.232913 20.2405 0.142851 20.181 0.0813514 20.0978C0.0198517 20.0146 -0.00912106 19.9132 -0.000445967 19.8114C-0.000445967 19.3894 0.00393737 18.9673 -0.000445967 18.5452C-0.000445967 18.2884 0.123016 18.1343 0.369944 18.0577C0.603722 17.985 0.837256 17.9118 1.07055 17.8382C1.39491 17.7355 1.42414 17.6637 1.26561 17.3619C1.15529 17.1509 1.04644 16.9398 0.932473 16.7288C0.874638 16.6379 0.852012 16.5302 0.868587 16.4248C0.885161 16.3194 0.93987 16.223 1.02306 16.1526C1.33355 15.8558 1.6433 15.5589 1.95087 15.2585C2.13643 15.0777 2.33733 15.051 2.56965 15.172C2.75959 15.2705 2.95465 15.3584 3.15409 15.4534C3.16627 15.422 3.17508 15.3894 3.18039 15.3563C3.18039 14.0309 3.18039 12.7056 3.18624 11.3809C3.18624 11.2466 3.11318 11.1755 3.02624 11.0953C1.36935 9.5589 0.675317 7.68904 0.98069 5.49347C1.39345 2.52407 4.09432 0.137862 7.2116 0.0555543C9.9972 -0.0147939 12.0764 1.16706 13.4315 3.51176C13.5272 3.67778 13.6244 3.72773 13.8092 3.72281C14.6932 3.71507 15.5772 3.72281 16.4612 3.72281H16.852C16.8155 3.60955 16.7906 3.53568 16.768 3.46111C16.5727 2.82451 16.6114 2.14251 16.8775 1.53018C17.1437 0.917848 17.6211 0.412669 18.2291 0.0998737C18.6806 -0.127351 18.9808 0.0442986 18.9823 0.534626C18.9823 1.13118 18.9823 1.73055 18.9823 2.32499C18.9823 2.63311 19.0649 2.70839 19.3885 2.71261C19.5529 2.71261 19.7165 2.71261 19.8809 2.71261C20.2023 2.70839 20.2834 2.631 20.2849 2.32077C20.2849 1.71577 20.2849 1.11007 20.2849 0.504376C20.2849 0.049223 20.591 -0.119613 21.0154 0.0907284C21.6315 0.398415 22.1161 0.904165 22.3851 1.52013C22.6542 2.13609 22.6907 2.82335 22.4882 3.46252C22.4108 3.70241 22.4692 3.72984 22.7008 3.72703C23.6506 3.71577 24.5959 3.7207 25.5442 3.72281C26.3441 3.72562 26.8555 4.21806 26.8555 4.99189C26.8555 5.4393 26.8555 5.88742 26.8555 6.33484C26.8555 6.8329 26.8555 6.84486 27.3625 6.82727C27.6335 6.82094 27.8439 6.88496 28.0003 7.096ZM4.06948 14.3285C4.68534 14.2265 5.27563 14.2701 5.86372 14.287C6.06536 14.2926 6.17859 14.4418 6.23777 14.624C6.31959 14.8751 6.40799 15.1234 6.492 15.3739C6.55994 15.5779 6.69217 15.6292 6.88869 15.5322C7.13197 15.4126 7.3767 15.2958 7.61925 15.172C7.71268 15.1149 7.82428 15.0919 7.9338 15.1072C8.04332 15.1226 8.14349 15.1753 8.21611 15.2557C8.53171 15.5596 8.84828 15.8644 9.16583 16.1702C9.24493 16.2385 9.29698 16.3311 9.3131 16.4322C9.32922 16.5332 9.30841 16.6366 9.25423 16.7246C9.14026 16.9441 9.02411 17.1621 8.90941 17.3816C8.75599 17.6743 8.78814 17.7446 9.122 17.8501L9.8226 18.0703C10.0571 18.1449 10.182 18.2933 10.1798 18.5388C10.1764 18.9609 10.1764 19.383 10.1798 19.8051C10.1798 20.0612 10.0564 20.2145 9.80726 20.2884C9.54645 20.3658 9.2893 20.4558 9.02703 20.529C8.97345 20.5405 8.92494 20.5679 8.88827 20.6072C8.8516 20.6466 8.8286 20.696 8.82247 20.7485C8.78741 20.9799 9.14099 21.3542 9.385 21.3542H25.4032C25.8897 21.3542 25.9832 21.2648 25.9832 20.8055C25.9832 18.4713 25.9832 16.1369 25.9832 13.8023C25.9832 13.5962 26.0826 13.3296 25.9321 13.2001C25.8174 13.1016 25.5515 13.1678 25.3528 13.1607H25.3213C25.0364 13.1488 24.8567 13.02 24.8552 12.7506C24.8552 12.5199 24.7493 12.4875 24.5586 12.5065C24.4769 12.516 24.3942 12.516 24.3124 12.5065C24.0933 12.4755 23.9472 12.5522 23.8171 12.7358C23.6706 12.9541 23.4788 13.1408 23.2538 13.2843C23.0287 13.4277 22.7753 13.5248 22.5094 13.5694C22.1584 13.6263 21.8019 13.6456 21.4465 13.6271C21.2916 13.6208 21.2405 13.6715 21.2426 13.8199C21.2478 14.1449 21.2551 14.4706 21.228 14.7935C21.1925 15.1734 21.0119 15.5272 20.7213 15.7864C20.4306 16.0456 20.0505 16.1919 19.6544 16.197C19.2584 16.2029 18.8742 16.0672 18.5761 15.8162C18.278 15.5651 18.0872 15.2165 18.0406 14.8378C18.0133 14.5055 18.0058 14.172 18.018 13.8389C18.018 13.6982 17.98 13.6278 17.8273 13.5772C17.389 13.4365 17.1698 13.1333 17.1698 12.6845C17.1698 12.5262 17.1698 12.3686 17.1698 12.2103C17.1698 12.14 17.1859 12.0738 17.115 12.019C16.5452 11.5772 16.6613 10.9982 16.7914 10.4263C16.8089 10.3362 16.8041 10.2434 16.7775 10.1554C16.6686 9.67005 16.5656 9.15791 16.947 8.75482C17.0302 8.67405 17.0933 8.57605 17.1312 8.46828C17.1692 8.36051 17.1812 8.24582 17.1661 8.13294C17.161 8.06259 17.1661 7.99224 17.1661 7.92189C17.1735 7.47518 17.3919 7.16284 17.8273 7.02917C17.9807 6.98204 18.0202 6.91521 18.0165 6.7724C18.0077 6.38689 17.9939 5.99857 18.0165 5.61447C18.0406 5.25851 17.9756 4.98837 17.6359 4.77029C17.4452 4.64789 17.2874 4.56347 17.0514 4.56628C16.1017 4.57754 15.1564 4.57121 14.2081 4.57121C13.8786 4.57121 13.8794 4.57121 13.9583 4.86667C14.184 5.69294 14.2286 6.55544 14.089 7.39921C13.9275 8.4203 13.5112 9.38844 12.8758 10.2206C12.2404 11.0527 11.4049 11.7241 10.4409 12.177C9.47691 12.6299 8.41321 12.8509 7.34104 12.8211C6.26886 12.7912 5.2202 12.5114 4.28499 12.0056C4.21851 11.9704 4.16007 11.8959 4.06582 11.9388L4.06948 14.3285ZM20.1505 12.7808H21.982C22.5292 12.7808 22.9456 12.5614 23.2239 12.1013C23.2597 12.0401 23.3043 11.9838 23.3393 11.9226C23.3822 11.8396 23.4498 11.7707 23.5335 11.7247C23.6171 11.6788 23.713 11.6578 23.8091 11.6644C24.0735 11.6644 24.338 11.6546 24.6017 11.6644C24.791 11.6743 24.8516 11.6138 24.8501 11.4288C24.8406 10.5691 24.8457 9.70944 24.8457 8.84979C24.8457 8.33835 24.8457 8.31655 24.3183 8.34539C23.9055 8.3686 23.6425 8.24057 23.4942 7.86139C23.1362 6.94687 22.4188 6.61271 21.4399 6.72668C21.3537 6.73653 21.2507 6.70346 21.25 6.84627C21.2492 6.98908 21.353 6.98274 21.4545 6.98274C21.6547 6.98274 21.857 6.9743 22.055 6.99259C22.1518 6.99865 22.2428 7.03917 22.3104 7.10626C22.3779 7.17335 22.4171 7.26222 22.4203 7.35559C22.4437 7.56241 22.3429 7.70733 22.1427 7.79034C22.0387 7.82314 21.9287 7.83487 21.8198 7.82481C20.6356 7.82481 19.4506 7.83255 18.2664 7.81989C17.9895 7.81989 18.0435 7.97747 18.0435 8.12731C18.0435 8.27715 17.9917 8.44177 18.2707 8.42981C18.7529 8.4087 19.2365 8.42066 19.7187 8.42488C20.0628 8.42488 20.2535 8.59161 20.2462 8.86245C20.2396 9.12063 20.0562 9.26414 19.7194 9.26554C19.0912 9.26554 18.4622 9.27961 17.8339 9.25992C17.5585 9.25147 17.5694 9.39287 17.5745 9.57156C17.5789 9.73899 17.5402 9.89868 17.8266 9.88813C18.3993 9.86702 18.9743 9.88179 19.5478 9.88179C19.6208 9.88179 19.6939 9.88179 19.7669 9.88179C20.0591 9.89164 20.2337 10.0415 20.2418 10.2828C20.2506 10.5374 20.0708 10.7175 19.7728 10.721C19.1262 10.7288 18.479 10.7379 17.8331 10.7175C17.557 10.7084 17.5767 10.8484 17.5723 11.0257C17.568 11.2142 17.5774 11.3359 17.8397 11.3289C18.4768 11.3106 19.1145 11.3176 19.7523 11.3289C20.0752 11.3324 20.2564 11.5061 20.2454 11.7706C20.2359 12.0232 20.0599 12.1646 19.7406 12.1674C19.2482 12.1709 18.7558 12.1794 18.2649 12.1674C17.9573 12.1576 18.0552 12.3609 18.0457 12.5065C18.0362 12.6521 18.0121 12.7977 18.2649 12.7879C18.8924 12.7682 19.5222 12.7794 20.1505 12.7794V12.7808ZM2.30884 17.5702C2.23611 17.8389 2.12834 18.0977 1.98812 18.3405C1.87197 18.555 1.60824 18.5621 1.39638 18.6289C0.878412 18.7928 0.892292 18.7893 0.870375 19.262C0.859417 19.5005 0.937587 19.6088 1.17721 19.6532C1.36228 19.6987 1.54429 19.7551 1.7222 19.822C1.78028 19.8344 1.83503 19.8583 1.88296 19.8922C1.93089 19.9261 1.97094 19.9693 2.00054 20.019C2.2146 20.4467 2.45787 20.8751 2.06849 21.3338C2.02904 21.3802 2.01589 21.4463 1.9779 21.4949C1.81937 21.6926 1.86539 21.8368 2.05607 22.0021C2.39943 22.2997 2.38774 22.3123 2.79758 22.1118C2.87255 22.0794 2.9457 22.0433 3.01675 22.0035C3.27829 21.8368 3.51864 21.8783 3.81232 21.9725C4.2397 22.1097 4.45886 22.3588 4.54288 22.7619C4.56333 22.8646 4.61593 22.9602 4.64004 23.0622C4.6678 23.1917 4.74378 23.2226 4.87163 23.2276C5.47872 23.2515 5.47872 23.255 5.67085 22.6922C5.70738 22.5846 5.74391 22.4762 5.78336 22.3686C5.8028 22.3146 5.83332 22.2649 5.87311 22.2225C5.91289 22.1801 5.96113 22.1458 6.01495 22.1217C6.47812 21.8931 6.94056 21.7467 7.403 22.1217C7.43734 22.1491 7.48629 22.1583 7.52281 22.1836C7.70691 22.3144 7.84353 22.2849 8.00279 22.1175C8.33738 21.7657 8.34834 21.7763 8.12771 21.3605C8.06196 21.2353 7.99548 21.1108 7.93046 20.9849C7.87386 20.8651 7.86835 20.7286 7.91512 20.605C8.06123 20.1041 8.33592 19.7404 8.91744 19.6771C8.97954 19.6708 9.03798 19.6342 9.10008 19.6243C9.26665 19.5962 9.30537 19.5033 9.30464 19.3479C9.30464 18.8005 9.30902 18.8005 8.76111 18.6282C8.6486 18.5923 8.53536 18.5578 8.42432 18.5206C8.37143 18.5059 8.32206 18.4813 8.27906 18.4483C8.23606 18.4152 8.20027 18.3742 8.17374 18.3278C7.95457 17.8994 7.75732 17.4935 8.10433 17.0081C8.39071 16.6071 8.33665 16.586 7.99987 16.2342C7.8406 16.0675 7.70764 16.0415 7.52062 16.1681C7.07279 16.4762 6.61473 16.5712 6.107 16.2736C5.94189 16.1773 5.80601 16.0879 5.74829 15.9071C5.67524 15.6897 5.59853 15.4752 5.52913 15.2571C5.52055 15.2146 5.4963 15.1765 5.46086 15.1499C5.42541 15.1233 5.38116 15.1099 5.33626 15.1122C4.71529 15.0629 4.71602 15.0594 4.52315 15.6264C4.48662 15.7348 4.4501 15.8445 4.41284 15.9507C4.37365 16.0692 4.2872 16.1679 4.17249 16.2251C3.71954 16.4453 3.28997 16.5825 2.79904 16.2553C2.4155 16 2.39797 16.0513 2.04657 16.3602C1.86466 16.5191 1.84201 16.6458 1.96548 16.8484C2.10282 17.0714 2.25259 17.2958 2.30884 17.5702ZM15.0249 25.1544H18.3029C19.1131 25.1544 19.9233 25.1544 20.7334 25.1544C20.8123 25.1544 20.9132 25.2001 20.9526 25.0622C21.1053 24.4741 20.8226 24.1146 20.195 24.1146C16.7629 24.1146 13.3293 24.1146 9.8942 24.1146C9.25204 24.1146 9.103 24.2715 9.0957 24.899C9.0957 25.1101 9.15634 25.1621 9.37112 25.1614C11.2552 25.1509 13.1401 25.1544 15.0249 25.1544ZM21.1572 1.26343C21.1572 1.69185 21.1645 2.06751 21.1572 2.44317C21.1418 3.06646 20.686 3.51528 20.0409 3.55468C19.9678 3.5589 19.8948 3.55468 19.8217 3.55468C18.5644 3.64542 18.0056 3.20293 18.1027 1.91345C18.1181 1.71014 18.1027 1.50543 18.1027 1.26203C17.1756 2.17022 17.3882 3.69115 18.5053 4.35172C18.7916 4.52126 18.9041 4.71964 18.8939 5.03551C18.8756 5.61447 18.8939 6.19414 18.8859 6.77311C18.8859 6.93139 18.9356 6.98908 19.105 6.98415C19.4418 6.9729 19.7801 6.96797 20.1161 6.98415C20.3353 6.99541 20.3747 6.9138 20.3711 6.72457C20.3609 6.17163 20.3821 5.61869 20.3623 5.06646C20.3499 4.7316 20.4653 4.52196 20.7714 4.33976C21.8724 3.68693 22.0769 2.166 21.1572 1.26343ZM23.7872 4.5698C23.3868 4.5698 22.9836 4.59653 22.5861 4.56277C22.1054 4.52196 21.7022 4.61623 21.3727 4.97641C21.2943 5.04542 21.2475 5.14156 21.2426 5.24374C21.2244 5.87687 21.2222 5.87687 21.8753 5.88953L22.0397 5.89375C22.8375 5.90642 23.4621 6.21876 23.896 6.86808C24.0093 7.03691 24.1152 7.21067 24.2233 7.38303C24.349 7.58492 24.5513 7.46533 24.7186 7.49066C24.8107 7.50473 24.8311 7.44212 24.845 7.36122C24.9217 6.90114 25.005 6.83361 25.4769 6.8329C25.5767 6.82692 25.6767 6.82692 25.7765 6.8329C25.9533 6.85471 25.9883 6.77803 25.9861 6.62186C25.9781 6.07807 25.9861 5.53498 25.9818 4.99119C25.9818 4.68095 25.8576 4.56276 25.5369 4.56136C24.9561 4.56276 24.3716 4.56488 23.7872 4.56488V4.5698ZM15.0132 22.192C14.0204 22.192 13.0275 22.1963 12.0355 22.1878C11.8367 22.1878 11.7535 22.2328 11.7703 22.4361C11.7831 22.647 11.7831 22.8584 11.7703 23.0693C11.7651 23.21 11.798 23.274 11.9639 23.274C14.0036 23.2688 16.0433 23.2688 18.083 23.274C18.2225 23.274 18.2788 23.2381 18.2722 23.0967C18.258 22.8779 18.258 22.6585 18.2722 22.4397C18.2883 22.2406 18.2181 22.1878 18.0143 22.1899C17.0164 22.197 16.0148 22.192 15.0132 22.192ZM27.1251 9.99224C27.1251 9.28876 27.1214 8.58528 27.1251 7.88672C27.1251 7.73406 27.0966 7.66583 26.9176 7.67567C26.5903 7.68974 26.2601 7.68693 25.9335 7.67567C25.7699 7.67075 25.7144 7.71648 25.7144 7.88109C25.7202 9.29368 25.7202 10.7063 25.7144 12.1189C25.7144 12.294 25.7874 12.3215 25.9423 12.3173C26.2616 12.3088 26.5808 12.306 26.8993 12.3173C27.0769 12.3243 27.1309 12.2722 27.1287 12.0985C27.12 11.3936 27.1251 10.6943 27.1251 9.99224ZM2.8531 6.0035C3.15263 6.0035 3.45289 6.0035 3.75315 6.0035C3.8525 6.0035 3.9314 5.99294 3.93432 5.86702C3.958 5.17586 4.05172 4.48858 4.21413 3.81496C4.24262 3.69185 4.19732 3.64402 4.06802 3.62291C3.67425 3.55819 3.28194 3.48573 2.89036 3.41187C2.84401 3.39625 2.79332 3.39759 2.74793 3.41561C2.70253 3.43364 2.6656 3.46711 2.64416 3.50965C2.19604 4.21298 1.91119 5.00131 1.80914 5.82059C1.78722 5.9845 1.86028 6.01124 2.00493 6.00772C2.28911 5.99857 2.57111 6.0035 2.8531 6.0035ZM12.1962 6.0035C12.4972 6.0035 12.7974 6.0035 13.0977 6.0035C13.2102 6.0035 13.284 5.99717 13.2657 5.84732C13.1716 5.02507 12.8916 4.23266 12.4453 3.52583C12.3722 3.40554 12.286 3.38514 12.1531 3.41116C11.7703 3.48714 11.386 3.55608 11.001 3.62221C10.8819 3.64191 10.8257 3.66794 10.86 3.80652C11.0218 4.47288 11.1184 5.15236 11.1486 5.83607C11.1551 5.9831 11.2216 6.00631 11.3517 6.0035C11.6315 5.99928 11.9142 6.0035 12.1962 6.0035ZM5.94554 6.0035C6.27283 6.0035 6.60304 6.0035 6.92814 6.0035C7.0538 6.0035 7.10713 5.96621 7.10567 5.83747C7.10128 5.23295 7.10128 4.62819 7.10567 4.02319C7.10567 3.91486 7.06914 3.86632 6.95152 3.86069C6.39678 3.8349 5.84254 3.80511 5.28878 3.77135C5.18211 3.76502 5.11855 3.78823 5.09298 3.89938C4.94053 4.53084 4.84568 5.17393 4.80953 5.82129C4.80369 5.95777 4.84387 6.00842 4.98998 6.0042C5.3085 5.99787 5.62702 6.0035 5.94554 6.0035ZM9.12711 6.0035C9.44563 6.0035 9.76489 5.99717 10.0834 6.0035C10.2419 6.00772 10.285 5.95425 10.2734 5.80441C10.2279 5.18368 10.1368 4.56682 10.0009 3.95847C9.96798 3.81778 9.91611 3.75587 9.74736 3.76924C9.23012 3.80934 8.71143 3.83536 8.19273 3.85366C8.03274 3.85999 7.97357 3.90008 7.97357 4.0647C7.98379 4.64296 7.98379 5.22169 7.97357 5.80089C7.97357 5.96973 8.03713 6.00772 8.19273 6.00279C8.5076 5.99717 8.81736 6.0035 9.12711 6.0035ZM2.8699 6.84768C2.57768 6.84768 2.28546 6.85541 1.99324 6.84768C1.8274 6.84205 1.79087 6.90677 1.8106 7.05098C1.89822 7.73902 2.11376 8.40625 2.44691 9.02073C2.50974 9.13681 2.58134 9.16917 2.70699 9.1354C3.12837 9.02379 3.55725 8.94034 3.99058 8.88566C4.14326 8.86667 4.1608 8.80617 4.13669 8.67462C4.02067 8.14207 3.95465 7.60055 3.93944 7.05661C3.93944 6.90044 3.88611 6.83783 3.72027 6.84556C3.43536 6.85823 3.15263 6.85049 2.8699 6.85049V6.84768ZM12.2334 6.84768C11.9332 6.84768 11.6329 6.84768 11.3327 6.84768C11.2107 6.84768 11.1551 6.87863 11.1478 7.00807C11.1239 7.5685 11.0555 8.12635 10.9433 8.67673C10.917 8.79914 10.9433 8.86386 11.0938 8.88777C11.5233 8.95812 11.9507 9.04465 12.3759 9.1361C12.5096 9.16495 12.5731 9.12555 12.6323 9.0151C12.9699 8.39371 13.1851 7.71754 13.2672 7.02073C13.2832 6.88777 13.2394 6.84768 13.1094 6.84979C12.8157 6.85401 12.5249 6.85119 12.2334 6.85119V6.84768ZM5.95066 6.84768C5.6409 6.84768 5.33042 6.85541 5.02139 6.84768C4.85117 6.84205 4.80222 6.89833 4.81099 7.05872C4.84149 7.55746 4.90248 8.05404 4.99363 8.54588C5.01847 8.6908 5.07326 8.74919 5.24275 8.73582C5.79651 8.69221 6.35173 8.66547 6.90622 8.64015C7.05745 8.63382 7.11224 8.59161 7.10932 8.44106C7.10055 7.97583 7.10055 7.51082 7.10932 7.04606C7.10932 6.89833 7.06183 6.84345 6.90696 6.84768C6.58624 6.85612 6.26699 6.85049 5.94847 6.85049L5.95066 6.84768ZM9.13077 6.84768C8.81297 6.84768 8.49518 6.8519 8.17739 6.84768C8.04589 6.84768 7.97722 6.873 7.97941 7.02003C7.98672 7.50121 7.98525 7.98239 7.97941 8.46287C7.97941 8.58176 8.01229 8.63171 8.14598 8.63804C8.71727 8.66336 9.28857 8.69713 9.85913 8.73371C9.98771 8.74215 10.0498 8.71894 10.0783 8.57895C10.1723 8.07183 10.2369 7.56008 10.2719 7.04606C10.285 6.89692 10.2376 6.84345 10.0798 6.84838C9.76489 6.85682 9.4471 6.85049 9.12858 6.85049L9.13077 6.84768ZM7.1064 10.7309C7.1064 10.3721 7.10128 10.0133 7.1064 9.65457C7.1064 9.51809 7.06183 9.46744 6.91791 9.47659C6.51026 9.50262 6.10042 9.51036 5.6935 9.54694C5.25882 9.58211 5.25078 9.59477 5.42173 9.98661C5.74756 10.7358 6.12745 11.4456 6.89965 11.8769C7.09179 11.9845 7.10786 11.924 7.10567 11.758C7.10055 11.4161 7.10421 11.0749 7.10421 10.7337L7.1064 10.7309ZM7.98306 10.7253C7.98306 11.0665 7.98964 11.4076 7.98306 11.7481C7.97722 11.9592 8.03274 11.9592 8.20223 11.8586C9.06575 11.3598 9.4376 10.5388 9.77073 9.68834C9.82406 9.55327 9.71813 9.57015 9.64142 9.56593C9.16072 9.53638 8.68001 9.51317 8.20077 9.47729C8.03639 9.46533 7.97357 9.50825 7.9816 9.67567C7.98745 10.0281 7.98014 10.3777 7.98014 10.7281L7.98306 10.7253ZM5.40859 2.91662C5.93605 2.9933 6.43721 2.98134 6.93618 3.0144C7.10128 3.02495 7.10932 2.94405 7.10859 2.82235C7.10494 2.32217 7.10859 1.8227 7.10421 1.32323C7.10421 1.19801 7.17726 1.01159 7.0611 0.960936C6.94494 0.910285 6.79591 1.03832 6.67975 1.11852C6.03467 1.56523 5.703 2.21173 5.40566 2.91943L5.40859 2.91662ZM19.6793 13.6194C19.4433 13.6194 19.2526 13.6194 19.0612 13.6194C18.9721 13.6194 18.8939 13.625 18.8968 13.739C18.9041 14.0907 18.8588 14.4425 18.9246 14.7886C18.9597 14.9485 19.0527 15.0911 19.1872 15.1909C19.3216 15.2907 19.4885 15.3411 19.6581 15.3331C19.8232 15.3297 19.9821 15.2714 20.1077 15.1681C20.2333 15.0647 20.3178 14.9227 20.347 14.7661C20.3682 14.6264 20.3751 14.485 20.3674 14.344C20.3572 14.1104 20.4726 13.8143 20.3163 13.6616C20.1702 13.523 19.8655 13.6447 19.6763 13.6222L19.6793 13.6194ZM7.98014 0.911692C7.98014 1.59688 7.98014 2.24127 7.98014 2.88637C7.98014 2.98908 8.02471 3.02706 8.12625 3.01721C8.63107 2.98485 9.14026 3.00174 9.67357 2.91662C9.30902 2.09636 8.93352 1.31127 7.98014 0.911692ZM5.18065 11.4548C4.86769 10.9321 4.61511 10.378 4.42745 9.8023C4.42481 9.78289 4.41759 9.76432 4.40633 9.74802C4.39508 9.73171 4.38009 9.71811 4.36252 9.70826C4.34495 9.69841 4.32527 9.69257 4.30499 9.69119C4.28471 9.68981 4.26438 9.69292 4.24554 9.7003C3.91679 9.76502 3.58804 9.82622 3.25491 9.87757C3.0993 9.90219 3.09272 9.94792 3.18697 10.0549C3.72843 10.6653 4.41137 11.1446 5.18065 11.4541V11.4548ZM9.88908 11.4597C10.7223 11.1231 11.4531 10.5881 12.0128 9.90501C11.5913 9.83466 11.2245 9.77698 10.8607 9.70663C10.7373 9.68271 10.6817 9.70663 10.6416 9.82481C10.4553 10.3951 10.2029 10.9432 9.88908 11.459V11.4597ZM9.90588 1.41398C10.1519 1.84882 10.3671 2.29913 10.5502 2.76185C10.5795 2.84275 10.6452 2.8322 10.7058 2.82305C11.0324 2.76889 11.3582 2.71261 11.7388 2.64718C11.2305 2.11037 10.6047 1.68893 9.90662 1.41328L9.90588 1.41398ZM3.37326 2.65562L4.36901 2.82024C4.44791 2.8329 4.50927 2.82516 4.54069 2.73723C4.70579 2.2673 4.95053 1.83255 5.22668 1.38443C4.65173 1.55467 3.71516 2.19555 3.37326 2.65492V2.65562Z" fill="#3489EF"/>
<path d="M5.09852 16.9378C5.7157 16.9408 6.30642 17.1795 6.74092 17.6016C7.17542 18.0237 7.41817 18.5946 7.41584 19.1889C7.41006 19.7831 7.1606 20.3509 6.72186 20.7686C6.28312 21.1863 5.69067 21.4201 5.07368 21.419C4.45683 21.4134 3.86727 21.1733 3.43348 20.751C2.99969 20.3286 2.75682 19.7583 2.75782 19.1643C2.75934 18.87 2.82114 18.5789 2.93966 18.3077C3.05819 18.0364 3.23111 17.7903 3.44853 17.5835C3.66596 17.3767 3.92361 17.2132 4.20674 17.1024C4.48986 16.9916 4.79291 16.9357 5.09852 16.9378ZM5.08098 17.782C4.69895 17.7818 4.33248 17.9277 4.06207 18.1875C3.79166 18.4474 3.63945 18.8 3.63887 19.1678C3.63819 19.3522 3.67528 19.5349 3.74802 19.7054C3.82075 19.8759 3.92769 20.031 4.06273 20.1617C4.19777 20.2924 4.35824 20.3961 4.53498 20.467C4.71171 20.5379 4.90122 20.5745 5.09267 20.5748C5.47475 20.571 5.84006 20.4232 6.11032 20.163C6.38057 19.9029 6.53426 19.5512 6.53844 19.1833C6.53951 18.9991 6.50261 18.8164 6.4299 18.646C6.35719 18.4756 6.2501 18.3207 6.11484 18.1904C5.97957 18.0601 5.8188 17.9569 5.64184 17.8868C5.46489 17.8167 5.27525 17.781 5.0839 17.782H5.08098Z" fill="#3489EF"/>
</g>
<defs>
<clipPath id="clip0_1914_4942">
<rect width="28" height="26" fill="white"/>
</clipPath>
</defs>
</svg>
