<svg width="30" height="24" viewBox="0 0 30 24" fill="none" xmlns="http://www.w3.org/2000/svg">
<path d="M29.9977 23.6863C29.8544 23.8912 29.6845 24.0571 29.4145 23.9566C29.1444 23.8561 29.1154 23.6264 29.1162 23.3704C29.1209 22.1741 29.1295 20.9826 29.1162 19.7895C29.1084 19.1655 28.864 18.5686 28.4342 18.1239C28.0044 17.6792 27.4224 17.421 26.8101 17.4033C26.4547 17.3914 26.4187 17.4368 26.5055 17.783C26.7161 18.6196 26.9173 19.4578 27.1404 20.2928C27.2461 20.6915 27.1482 20.9898 26.8461 21.2498C26.5611 21.4891 26.2895 21.7507 26.0077 21.9955C25.6625 22.2954 25.2985 22.2962 24.9501 21.9955C24.6589 21.7459 24.3826 21.4779 24.089 21.2307C23.7955 20.9834 23.7172 20.6724 23.8135 20.2952C24.0327 19.4394 24.2385 18.5805 24.4655 17.7279C24.5329 17.4775 24.4538 17.4089 24.2229 17.4002C23.0087 17.3738 21.8917 18.4066 21.8541 19.6532C21.8189 20.8495 21.8408 22.0402 21.8377 23.2341C21.8377 23.3338 21.8431 23.4334 21.8338 23.5323C21.8064 23.8163 21.6294 23.9909 21.3844 23.9853C21.1394 23.9798 20.9672 23.7987 20.9625 23.5116C20.9539 22.994 20.9523 22.4748 20.9625 21.9596C20.9664 21.7714 20.9257 21.7204 20.7331 21.7674C20.4028 21.8543 20.0662 21.9157 19.7319 21.9827C19.4368 22.041 19.2153 21.9149 19.1597 21.6637C19.0994 21.3926 19.2434 21.1852 19.5511 21.111C19.9214 21.0249 20.2924 20.938 20.6658 20.8718C20.8811 20.8303 20.9711 20.7402 20.9633 20.4993C20.9476 20.0033 20.921 19.5024 21.0541 19.0159C21.3547 17.9177 22.0287 17.1561 23.062 16.7231C23.134 16.6927 23.2076 16.668 23.2804 16.6433C23.2961 16.6331 23.311 16.6216 23.325 16.609C23.0075 16.1925 22.8058 15.6967 22.741 15.1735C22.7207 15.014 22.5845 15.014 22.4858 14.9693C21.4468 14.565 20.3685 14.2742 19.2693 14.1016C15.8766 13.5513 12.5019 13.6111 9.15383 14.4405C8.57652 14.5863 8.00889 14.7693 7.45436 14.9884C7.33928 15.0331 7.26022 15.0817 7.24143 15.2277C7.17308 15.7325 6.97274 16.2094 6.66137 16.6082C6.76157 16.6489 6.8469 16.6824 6.93066 16.7191C8.22229 17.2885 8.94247 18.275 9.02937 19.7186C9.05064 19.9573 9.05064 20.1976 9.02937 20.4363C8.99414 20.7314 9.11939 20.8215 9.38163 20.8838C11.4576 21.3782 13.5618 21.5561 15.6879 21.4986C16.2445 21.4835 16.7995 21.4404 17.3553 21.4189C17.6841 21.4045 17.8829 21.5513 17.9088 21.8177C17.9346 22.084 17.7326 22.2826 17.4038 22.3153C16.7244 22.3831 16.7244 22.3831 16.7244 23.0929C16.7244 23.2221 16.7244 23.3513 16.7244 23.4805C16.7111 23.8091 16.542 23.9997 16.2766 23.9941C16.0112 23.9885 15.8601 23.8035 15.85 23.4909C15.8414 23.2125 15.839 22.9326 15.85 22.6551C15.857 22.4676 15.8077 22.3903 15.605 22.3991C15.1955 22.4158 14.7846 22.4126 14.3752 22.3991C14.1912 22.3935 14.1403 22.4613 14.1403 22.6383C14.1505 22.927 14.1497 23.2157 14.1403 23.5036C14.1294 23.8131 13.9556 23.9957 13.6996 23.9925C13.4436 23.9893 13.2777 23.8051 13.2683 23.4941C13.2546 23.2156 13.2546 22.9367 13.2683 22.6582C13.2839 22.4294 13.2049 22.3448 12.9794 22.3329C12.0243 22.2773 11.0741 22.1547 10.1355 21.966C9.83879 21.907 9.54132 21.8512 9.25012 21.7714C9.07712 21.7235 9.0278 21.7586 9.03093 21.9405C9.03954 22.4278 9.03093 22.9151 9.03093 23.4031C9.03093 23.7867 8.87985 23.9885 8.60195 23.9925C8.32405 23.9965 8.1534 23.7852 8.15262 23.3872C8.15262 22.2132 8.1628 21.0393 8.15262 19.8653C8.13853 18.6555 7.39173 17.7192 6.26214 17.4584L6.23396 17.4512C5.52943 17.2981 5.44567 17.381 5.62102 18.0836C5.80341 18.815 5.98033 19.5487 6.17446 20.2768C6.28014 20.6756 6.2003 20.9946 5.88091 21.2602C5.58579 21.505 5.31103 21.7754 5.01982 22.0234C4.69731 22.297 4.32939 22.2938 4.00844 22.0178C3.68749 21.7419 3.38924 21.4699 3.08316 21.1924C2.9655 21.0937 2.87973 20.9611 2.83701 20.8121C2.79429 20.663 2.79659 20.5043 2.84362 20.3566C3.06359 19.5016 3.27573 18.6451 3.491 17.7885C3.57789 17.444 3.54267 17.401 3.18258 17.4129C2.56982 17.4318 1.98797 17.6914 1.55874 18.1373C1.12951 18.5832 0.886141 19.181 0.879552 19.8055C0.864679 21.009 0.874072 22.2124 0.879552 23.4167C0.879552 23.5906 0.869377 23.758 0.729254 23.8801C0.669461 23.9401 0.593011 23.9799 0.51026 23.9942C0.427509 24.0084 0.342457 23.9964 0.266617 23.9598C0.184596 23.9254 0.115005 23.866 0.0673652 23.7898C0.0197251 23.7136 -0.00364022 23.6242 0.000460524 23.5339C0.000460524 23.1758 0.000460524 22.8162 0.000460524 22.4597C0.000460524 21.6239 0.000460524 20.7849 0.000460524 19.9522C0.000460524 18.4298 0.793447 17.255 2.18528 16.7127C2.34184 16.6529 2.37159 16.621 2.27295 16.4575C1.56843 15.3011 1.55747 14.0521 2.04202 12.8535C2.74029 11.1268 4.9251 10.6746 6.31694 11.8916C6.36782 11.9363 6.41948 11.9794 6.4915 12.0408C6.68877 11.3836 7.00972 10.8253 7.50915 10.3803C7.81347 10.0985 8.17165 9.88371 8.56124 9.74948C8.77339 9.68089 8.76791 9.6139 8.645 9.45759C8.55312 9.34123 8.48114 9.20992 8.43208 9.06919C8.3538 8.84668 8.27552 8.79963 8.04068 8.91447C5.48951 10.1594 2.42873 8.75497 1.65297 5.99872C1.58956 5.77461 1.57469 5.56406 1.76961 5.40057C2.02402 5.18923 2.36454 5.31603 2.47414 5.67811C2.65509 6.32144 2.99277 6.90771 3.45577 7.38242C4.03431 7.963 4.78263 8.33594 5.58763 8.44486C6.39263 8.55378 7.21055 8.39276 7.91778 7.98615C8.10252 7.87928 8.17689 7.75726 8.16749 7.53874C8.14479 7.03072 8.16045 6.52349 8.34911 6.04018C8.5727 5.42736 9.008 4.91865 9.57341 4.60942C9.77146 4.50176 9.79965 4.38213 9.76834 4.18355C9.4787 2.38193 8.10878 1.04926 6.38895 0.90491C4.64329 0.757368 3.07533 1.8436 2.51562 3.58779C2.40368 3.93711 2.2205 4.07269 1.94887 4.00729C1.67724 3.94189 1.56373 3.68828 1.67176 3.33737C2.05612 2.07807 2.817 1.12742 3.96773 0.52848C6.78584 -0.939766 10.1151 0.79246 10.6146 3.98177C10.6435 4.16281 10.6842 4.24655 10.8987 4.24735C12.4573 4.25612 13.6385 5.44364 13.6597 7.03869C13.6675 7.52438 13.7051 8.01247 13.6017 8.49577C13.5034 8.91243 13.3184 9.30271 13.0593 9.64022C13.3904 9.77979 13.709 9.90181 13.9908 10.102C14.3459 10.3504 14.6519 10.6648 14.8926 11.0287C14.9325 11.0885 14.9709 11.2329 15.0726 11.0798C15.2919 10.7374 15.5679 10.4365 15.8883 10.1905C16.2113 9.95146 16.5707 9.76823 16.9522 9.64819C16.1795 8.67362 16.2367 7.55469 16.4105 6.46447C16.5913 5.33597 17.3209 4.60623 18.4066 4.32072C19.4924 4.0352 20.4357 4.36219 21.1738 5.22432C21.3406 5.41971 21.4087 5.38382 21.559 5.2291C22.096 4.68795 22.7613 4.29754 23.4902 4.09581C23.7822 4.01606 24.0045 4.11256 24.0867 4.35661C24.1751 4.61899 24.053 4.84948 23.7469 4.94438C23.0298 5.15596 22.389 5.57649 21.9034 6.15423C21.8548 6.2068 21.8191 6.27031 21.7991 6.3396C21.7791 6.40888 21.7754 6.48199 21.7883 6.55299C21.8754 7.16456 21.8735 7.78585 21.7829 8.39687C21.7032 8.85603 21.5076 9.28616 21.2153 9.64501C22.3895 10.0438 23.1434 10.8269 23.5074 12.0296C23.8988 11.6548 24.3301 11.3916 24.8343 11.272C25.4857 11.1053 26.175 11.1965 26.7631 11.5272C26.9314 11.6221 27.0332 11.6069 27.1678 11.4817C28.2082 10.5135 28.6551 9.31802 28.3945 7.90879C28.1291 6.47803 27.2774 5.51621 25.9325 5.00659C25.8503 4.97629 25.7627 4.96034 25.6812 4.92684C25.4292 4.82715 25.3086 4.59108 25.3853 4.35741C25.4621 4.12373 25.6922 4.0025 25.9537 4.08146C27.5976 4.57752 28.7037 5.65897 29.1632 7.33696C29.654 9.13698 29.1906 10.7169 27.877 12.0232C27.7079 12.1915 27.6367 12.2928 27.8027 12.5201C28.0389 12.8532 28.1771 13.248 28.2011 13.6582C28.2794 14.6878 28.3248 15.7158 27.6226 16.5955C27.8778 16.7159 28.1236 16.8092 28.3467 16.9416C29.2023 17.4504 29.7299 18.2072 29.9382 19.1938C29.9522 19.26 29.9382 19.3358 30 19.386L29.9977 23.6863ZM6.38504 14.4302C6.38504 14.2611 6.38974 14.092 6.38504 13.9229C6.35608 12.9739 5.60223 12.1684 4.69496 12.1022C3.6914 12.0344 2.85067 12.682 2.68393 13.6574C2.61433 14.1097 2.60642 14.5697 2.66044 15.0243C2.70137 15.4847 2.9054 15.9142 3.23443 16.2325C3.56345 16.5509 3.99497 16.7363 4.44837 16.7542C4.89623 16.7693 5.33472 16.6213 5.68509 16.3367C6.03546 16.0521 6.27475 15.6496 6.35999 15.2014C6.40539 14.9454 6.37878 14.6862 6.38504 14.4302ZM23.6068 14.4206C23.6068 14.5697 23.6068 14.7189 23.6068 14.868C23.6118 15.3502 23.7957 15.8126 24.1216 16.1623C24.4474 16.512 24.8911 16.7232 25.3634 16.7534C25.8264 16.7802 26.2826 16.6308 26.6434 16.3341C27.0042 16.0374 27.2439 15.6146 27.3158 15.1479C27.3772 14.7146 27.3843 14.2751 27.3369 13.84C27.2539 12.9165 26.5658 12.1971 25.7173 12.1046C24.8037 12.0041 23.9951 12.5217 23.7015 13.3854C23.5857 13.726 23.6099 14.0729 23.6068 14.419V14.4206ZM12.7774 7.45899C12.7774 7.29071 12.7829 7.12163 12.7774 6.95256C12.7611 6.48126 12.5732 6.03303 12.2504 5.69503C11.9276 5.35703 11.493 5.15343 11.031 5.12383C10.5643 5.09377 10.1036 5.24406 9.74091 5.54473C9.37817 5.84541 9.14003 6.27435 9.07399 6.746C9.01332 7.2097 9.01332 7.67956 9.07399 8.14326C9.12971 8.57027 9.32709 8.96502 9.63338 9.26198C9.93967 9.55894 10.3364 9.74025 10.7578 9.7758C11.1941 9.81247 11.6292 9.69277 11.9881 9.43736C12.347 9.18196 12.6071 8.80689 12.7234 8.37694C12.8009 8.07388 12.7696 7.76604 12.7774 7.45899ZM17.216 7.44543C17.216 7.6145 17.2105 7.78358 17.216 7.95186C17.2488 8.91687 18.0097 9.72317 18.9334 9.7766C19.9378 9.83482 20.7895 9.14655 20.9226 8.15682C20.9832 7.69339 20.9832 7.22379 20.9226 6.76035C20.8648 6.32845 20.6628 5.92997 20.3506 5.63193C20.0384 5.3339 19.635 5.15447 19.2082 5.12383C18.7763 5.09489 18.3479 5.21877 17.9953 5.47453C17.6427 5.73028 17.3876 6.10222 17.2731 6.52747C17.1925 6.83133 17.2238 7.13918 17.216 7.44543ZM7.26648 13.2147C7.26648 13.4891 7.27431 13.6885 7.26648 13.8863C7.25787 14.0561 7.30562 14.092 7.4661 14.0298C7.9672 13.8362 8.48026 13.6763 9.00196 13.5513C9.06822 13.5425 9.12979 13.5117 9.17718 13.4637C9.22457 13.4157 9.25515 13.3532 9.26421 13.2857C9.4693 12.4387 9.67753 11.5918 9.90533 10.7504C9.98361 10.4728 9.8701 10.4266 9.64308 10.4242C8.69119 10.4138 7.78313 11.0622 7.43087 11.9961C7.29658 12.387 7.24068 12.8014 7.26648 13.2147ZM22.7262 13.245C22.7342 12.9613 22.718 12.6774 22.6776 12.3965C22.4741 11.2799 21.447 10.413 20.3495 10.4282C20.1194 10.4282 20.0145 10.48 20.0897 10.7568C20.3182 11.5981 20.5225 12.4459 20.7347 13.2913C20.7582 13.3878 20.7644 13.4963 20.8826 13.525C21.4598 13.6673 22.029 13.8414 22.5876 14.0466C22.6941 14.0848 22.7285 14.0466 22.7269 13.9429C22.7246 13.7339 22.7262 13.5258 22.7262 13.245ZM17.2269 12.9508C17.4735 13.0528 17.5471 12.8566 17.6074 12.5887C17.7472 11.9698 17.9017 11.3544 18.0708 10.7424C18.1373 10.5031 18.0591 10.4385 17.8446 10.4282C16.6868 10.37 15.5314 11.4243 15.4523 12.6014C15.439 12.8008 15.4969 12.8622 15.6871 12.8646C16.2016 12.8623 16.7158 12.8911 17.2269 12.9508ZM12.7062 12.9508C13.2427 12.8903 13.7821 12.8602 14.3219 12.8606C14.502 12.8606 14.5513 12.7936 14.5411 12.611C14.4769 11.4299 13.2816 10.342 12.1324 10.425C11.9328 10.4393 11.8584 10.5047 11.9195 10.7265C12.0941 11.3645 12.2577 12.0121 12.4056 12.6597C12.4565 12.8846 12.5269 13.0146 12.7062 12.9539V12.9508ZM26.266 20.4555C26.266 20.4355 26.2582 20.4164 26.2535 20.3973C26.0364 19.5311 25.8198 18.6653 25.6038 17.7997C25.5865 17.7311 25.5756 17.6625 25.4871 17.6522C25.3728 17.6394 25.3666 17.7319 25.3478 17.8037C25.1286 18.669 24.9125 19.5343 24.6902 20.3989C24.6734 20.4398 24.6709 20.4853 24.6831 20.5279C24.6954 20.5704 24.7217 20.6074 24.7575 20.6325C25.0041 20.8247 25.203 21.2028 25.4738 21.202C25.7447 21.2012 25.9482 20.8303 26.1901 20.6317C26.2449 20.5903 26.2942 20.5408 26.266 20.4587V20.4555ZM5.31729 20.4555C5.31181 20.4363 5.30555 20.4172 5.30085 20.3981C5.08584 19.542 4.87005 18.6866 4.65347 17.8316C4.63312 17.7519 4.64173 17.637 4.5063 17.6522C4.39984 17.6641 4.40297 17.7543 4.38418 17.8284L3.9145 19.7042C3.69296 20.5863 3.69375 20.5863 4.37557 21.1398C4.39827 21.1581 4.42019 21.178 4.44211 21.198C4.45181 21.2094 4.46383 21.2187 4.47734 21.225C4.49085 21.2313 4.50553 21.2345 4.52039 21.2345C4.53525 21.2345 4.54994 21.2313 4.56345 21.225C4.57696 21.2187 4.58897 21.2094 4.59867 21.198L5.2805 20.5879C5.29727 20.5717 5.30952 20.5513 5.31598 20.5287C5.32245 20.5062 5.3229 20.4823 5.31729 20.4595V20.4555ZM10.3625 13.249C10.6928 13.1964 11.078 13.1334 11.4631 13.0736C11.5547 13.0592 11.5985 13.0345 11.5696 12.9212C11.388 12.221 11.2142 11.5184 11.0357 10.8166C11.02 10.7536 11.0153 10.6738 10.9167 10.6754C10.8181 10.677 10.8056 10.7432 10.7883 10.811C10.5942 11.5809 10.4008 12.3502 10.2083 13.119C10.1871 13.206 10.1738 13.2905 10.3625 13.253V13.249ZM19.7953 13.1597C19.7898 13.1398 19.7828 13.1111 19.7757 13.08C19.5868 12.3303 19.3984 11.5803 19.2106 10.8301C19.191 10.7504 19.1753 10.6706 19.0689 10.6706C18.9624 10.6706 18.971 10.7576 18.9554 10.8198C18.7792 11.5112 18.6101 12.2051 18.4301 12.8933C18.3988 13.013 18.4246 13.0528 18.5381 13.0688C18.9139 13.1246 19.2896 13.186 19.6646 13.2482C19.739 13.2714 19.8055 13.2865 19.7953 13.1637V13.1597Z" fill="#3489EF"/>
<path d="M24.8859 10.5653C24.4339 10.5692 23.9922 10.427 23.6245 10.1592C23.2567 9.89141 22.9817 9.51175 22.8389 9.07477C22.6959 8.64304 22.6889 8.17658 22.8188 7.7406C22.9488 7.30462 23.2092 6.92091 23.5637 6.64311C23.921 6.3609 24.3568 6.20118 24.8086 6.18686C25.2604 6.17253 25.7051 6.30433 26.0789 6.56336C26.219 6.66145 26.3341 6.73483 26.5204 6.67103C26.6887 6.61281 26.8484 6.69335 26.9494 6.85126C27.0504 7.00918 27.0637 7.18304 26.9533 7.32978C26.8429 7.47653 26.8789 7.56904 26.9212 7.70861C27.0252 8.03598 27.0517 8.38375 26.9988 8.72356C26.9458 9.06338 26.8148 9.38565 26.6164 9.6641C26.418 9.94256 26.1578 10.1693 25.8571 10.3259C25.5564 10.4826 25.2236 10.5646 24.8859 10.5653ZM26.1165 8.19032C25.8472 8.47344 25.6311 8.71269 25.4026 8.9376C25.1943 9.14176 24.9752 9.15692 24.7763 8.97747C24.5941 8.81219 24.4219 8.63588 24.2604 8.44951C24.2209 8.41136 24.1896 8.36532 24.1683 8.31428C24.147 8.26323 24.1363 8.20826 24.1369 8.15281C24.1374 8.09736 24.1491 8.04261 24.1713 7.99198C24.1935 7.94135 24.2257 7.89592 24.2659 7.85854C24.435 7.67351 24.6699 7.63524 24.8389 7.81229C25.048 8.03081 25.1693 7.96062 25.3165 7.76922C25.3763 7.69035 25.4457 7.6196 25.5231 7.55868C25.7196 7.40475 25.6398 7.31942 25.466 7.2277C25.2167 7.09845 24.9329 7.05554 24.6576 7.10549C24.3823 7.15543 24.1304 7.29549 23.9403 7.50444C23.7517 7.71567 23.6365 7.98427 23.6126 8.26879C23.5887 8.55331 23.6574 8.83794 23.808 9.07876C23.9628 9.32277 24.1935 9.50689 24.4631 9.60172C24.7327 9.69655 25.0257 9.69663 25.2953 9.60194C25.8472 9.40575 26.1721 8.89134 26.1165 8.19032Z" fill="#3489EF"/>
<path d="M5.50125 5.11984C5.08245 5.11984 4.66365 5.11984 4.24484 5.11984C3.92624 5.11984 3.73837 4.94438 3.73993 4.67083C3.7415 4.39728 3.92859 4.229 4.24954 4.22741C5.0981 4.22369 5.94615 4.22369 6.79367 4.22741C7.10679 4.22741 7.30719 4.41164 7.30562 4.67642C7.30405 4.9412 7.10287 5.11665 6.78819 5.12064C6.35921 5.12303 5.93023 5.11984 5.50125 5.11984Z" fill="#3489EF"/>
<path d="M5.50359 6.69415C5.08479 6.69415 4.66599 6.69974 4.2511 6.69415C3.91841 6.68777 3.74306 6.52747 3.74384 6.24993C3.74463 5.97239 3.91997 5.80651 4.25032 5.80412C5.09836 5.79774 5.94562 5.79774 6.7921 5.80412C7.10913 5.80412 7.30718 5.98914 7.30718 6.25073C7.30718 6.51232 7.10991 6.69415 6.78975 6.69415C6.36077 6.70293 5.9357 6.69415 5.50359 6.69415Z" fill="#3489EF"/>
<path d="M4.95015 2.64751C5.18499 2.64751 5.41983 2.64113 5.65467 2.64751C5.94823 2.65867 6.13845 2.84131 6.1361 3.09253C6.13375 3.34375 5.95214 3.52638 5.67738 3.53276C5.18186 3.54472 4.68556 3.54632 4.19004 3.53276C3.9051 3.52479 3.74384 3.34455 3.74463 3.08695C3.74541 2.82934 3.90824 2.66186 4.19631 2.6491C4.44837 2.63714 4.702 2.6491 4.95484 2.6491L4.95015 2.64751Z" fill="#3489EF"/>
</svg>
