<svg width="26" height="26" viewBox="0 0 26 26" fill="none" xmlns="http://www.w3.org/2000/svg">
<g clip-path="url(#clip0_1914_4975)">
<path d="M15.0155 26.0001C14.1114 25.8732 13.2271 25.632 12.3839 25.2822C10.8495 24.6242 9.43747 23.7111 8.20777 22.5817C6.32033 20.8627 4.48032 19.0901 2.85379 17.1176C2.56373 16.7658 2.30552 16.3876 2.04053 16.0141C1.865 15.7646 1.89618 15.5328 2.10153 15.3918C2.30688 15.2508 2.54679 15.3152 2.71148 15.5579C3.6081 16.881 4.69245 18.0395 5.82898 19.1545C6.90249 20.2086 7.92381 21.3168 9.09219 22.2726C10.5445 23.4588 12.0999 24.4627 13.9365 24.9501C15.3347 25.3215 16.7247 25.3331 18.0855 24.7705C18.5106 24.5993 18.8978 24.3459 19.2248 24.0248C19.3651 23.8859 19.3779 23.7917 19.1868 23.6791C17.7507 22.8305 16.4021 21.8544 15.0907 20.8261C14.9755 20.7359 14.8833 20.639 14.7301 20.7976C13.9968 21.5582 13.088 21.7215 12.0938 21.5188C10.8956 21.2755 9.89936 20.6349 9.0251 19.8175C7.97125 18.8292 6.92417 17.8266 5.97537 16.736C5.20006 15.8446 4.60638 14.8428 4.42542 13.6491C4.28988 12.7571 4.47151 11.9464 5.15736 11.3078C5.30781 11.1675 5.31323 11.0706 5.18582 10.9106C4.13778 9.60584 3.18019 8.2309 2.31975 6.79543C2.19573 6.5853 2.09746 6.64698 1.97344 6.77442C1.40619 7.35736 1.0924 8.07113 0.92975 8.85336C0.606478 10.4077 0.886378 11.8921 1.49022 13.3325C1.5912 13.5739 1.70913 13.807 1.81892 14.0463C1.95446 14.3391 1.90431 14.5682 1.68337 14.6855C1.46244 14.8028 1.24692 14.7086 1.09715 14.4144C0.554974 13.3603 0.172741 12.2568 0.0304203 11.076C0.0242588 11.0428 0.0147182 11.0103 0.00195312 10.9791V9.35768C0.0832794 9.01265 0.128687 8.66085 0.22289 8.31787C0.584114 7.00082 1.33231 5.99693 2.5678 5.38213C2.91546 5.2086 3.26381 5.0344 3.61962 4.88053C4.20449 4.62769 4.77174 4.78088 5.1472 5.30079C5.99751 6.47978 6.84217 7.66307 7.68118 8.85065C8.10137 9.44647 7.98819 10.127 7.4101 10.5798C6.94383 10.9445 6.48027 11.3126 6.00112 11.6596C5.28342 12.1795 5.13296 12.8987 5.278 13.7067C5.44946 14.6591 5.94622 15.4637 6.57582 16.1686C7.64594 17.3657 8.76621 18.5194 9.99424 19.5578C10.6516 20.1184 11.3971 20.5631 12.2707 20.7203C13.1009 20.8729 13.8294 20.7142 14.3581 19.9747C14.7023 19.4941 15.0731 19.0318 15.4424 18.5675C15.8748 18.0198 16.5349 17.9059 17.111 18.2923C17.5813 18.6075 18.0367 18.9451 18.4942 19.2786C18.7097 19.4358 18.7578 19.6907 18.6236 19.8771C18.4894 20.0635 18.2549 20.0967 18.036 19.9449C17.6037 19.6487 17.1808 19.3389 16.7531 19.0366C16.4509 18.8224 16.2679 18.8448 16.0354 19.1315C15.8497 19.3613 15.6776 19.6026 15.4932 19.8317C15.3943 19.9524 15.4133 20.035 15.5305 20.1252C16.8528 21.1793 18.2409 22.1481 19.6863 23.0257C19.8069 23.0989 19.8896 23.0881 19.9479 22.9579C20.0929 22.6434 20.2447 22.3323 20.3843 22.015C20.4785 21.8022 20.3884 21.6361 20.2156 21.5094C19.9642 21.3236 19.7059 21.1474 19.4545 20.961C19.2031 20.7746 19.1522 20.5502 19.2898 20.3509C19.4274 20.1516 19.6775 20.1245 19.937 20.3048C20.1966 20.4851 20.465 20.6715 20.7205 20.8661C21.203 21.2314 21.3623 21.7818 21.14 22.3323C20.9247 22.8564 20.6689 23.3629 20.3749 23.8472C19.6829 25.0057 18.6026 25.5696 17.338 25.8584C17.1083 25.9106 16.8758 25.9506 16.644 25.994L15.0155 26.0001ZM4.09334 5.57328C3.7067 5.71373 3.33374 5.88935 2.97917 6.09793C2.8748 6.16165 2.9419 6.24841 2.98459 6.31823C3.14657 6.5853 3.30922 6.85169 3.47662 7.11537C4.21464 8.26641 5.00992 9.3797 5.85948 10.451C5.93877 10.5514 6.0079 10.6341 6.14615 10.5188C6.40098 10.3107 6.66935 10.1196 6.92146 9.90876C7.13156 9.7332 7.15866 9.52578 7.00076 9.30413C6.16581 8.1292 5.32702 6.95653 4.48439 5.78612C4.44072 5.7222 4.3825 5.66958 4.31451 5.63257C4.24652 5.59557 4.17072 5.57525 4.09334 5.57328Z" fill="#3489EF"/>
<path d="M17.9272 16.2248C16.8781 16.2527 15.8353 16.0548 14.8693 15.6445C14.0561 15.2961 13.2509 15.2894 12.4255 15.5768C11.907 15.7564 11.394 15.955 10.8593 16.0858C10.1931 16.2485 9.75324 15.8099 9.91047 15.1443C10.046 14.5844 10.2602 14.0496 10.4418 13.5053C10.7129 12.6919 10.6451 11.9198 10.3442 11.1098C9.21175 8.02831 9.68208 5.18544 11.846 2.7086C13.5932 0.708968 15.8696 -0.138334 18.51 0.0182474C19.6197 0.0886922 20.7007 0.400279 21.6777 0.931301C21.9488 1.07704 22.0349 1.28988 21.9176 1.5095C21.8004 1.72912 21.5788 1.79555 21.3077 1.6532C20.2645 1.09797 19.1008 0.807916 17.9191 0.808611C16.2248 0.808611 14.685 1.31428 13.3594 2.38392C11.6868 3.73282 10.763 5.48301 10.6031 7.63448C10.5139 8.72581 10.6889 9.82256 11.1134 10.8319C11.5243 11.7712 11.5575 12.8328 11.2063 13.7961C11.0761 14.1716 10.9494 14.548 10.8261 14.9254C10.7983 15.0094 10.7264 15.1063 10.801 15.1884C10.8755 15.2704 10.9779 15.2012 11.0612 15.1741C11.439 15.0512 11.8153 14.9247 12.1903 14.7945C13.1893 14.4448 14.1611 14.4787 15.154 14.8772C19.3802 16.5718 24.0816 14.1018 25.0107 9.64971C25.5665 6.98986 24.823 4.66757 22.8535 2.76419C22.7926 2.70589 22.7288 2.65031 22.6685 2.59134C22.453 2.37714 22.4293 2.14803 22.6008 1.96704C22.7722 1.78606 22.985 1.79758 23.2107 1.9867C23.6752 2.38119 24.0894 2.83126 24.4441 3.3268C25.6112 4.93938 26.0991 6.74719 25.9805 8.72581C25.7826 12.033 23.3449 15.0264 20.1332 15.9164C19.3951 16.1211 18.6497 16.2444 17.9272 16.2248Z" fill="#3489EF"/>
<path d="M23.0924 7.48073C23.0924 8.23313 23.0924 8.98486 23.0924 9.73659C23.0924 10.0565 23.0009 10.3256 22.6858 10.4605C22.3706 10.5954 22.1117 10.4836 21.8901 10.2463C21.8325 10.184 21.7715 10.1263 21.7112 10.0667C21.5682 9.923 21.4157 9.78743 21.2842 9.63356C21.1528 9.47969 21.0633 9.48918 20.9223 9.63356C20.0799 10.4883 19.228 11.3336 18.3802 12.1822C17.8674 12.6938 17.3541 13.2053 16.8404 13.7169C16.4718 14.0836 16.1627 14.0816 15.7947 13.7094C15.4986 13.4085 15.2098 13.0994 14.9137 12.797C14.5138 12.3849 14.5125 12.0968 14.9137 11.6942L20.0779 6.53175C20.6811 5.92847 21.2869 5.32722 21.8861 4.71988C22.1131 4.49009 22.3605 4.36808 22.681 4.50161C23.0016 4.63515 23.0937 4.90018 23.0931 5.22013C23.0917 5.97389 23.0915 6.72742 23.0924 7.48073ZM22.2486 5.51499C21.6089 6.15419 21.0179 6.74459 20.4276 7.33567C18.8566 8.90691 17.2846 10.477 15.7114 12.046C15.5568 12.1999 15.5277 12.2995 15.7046 12.448C15.8533 12.5731 15.9895 12.7125 16.1112 12.8642C16.2671 13.0587 16.3782 13.0404 16.5504 12.8642C17.8755 11.5256 19.2064 10.1926 20.5428 8.86488C20.9542 8.45411 21.2497 8.45818 21.6685 8.86488C21.8508 9.04316 22.0074 9.24922 22.2479 9.40716L22.2486 5.51499Z" fill="#3489EF"/>
<path d="M12.5321 8.89331C12.5321 8.15785 12.5321 7.42239 12.5321 6.68625C12.5321 6.38122 12.5849 6.09178 12.894 5.93046C13.161 5.79082 13.4233 5.82471 13.6632 6.04908C13.8888 6.25344 14.1039 6.46904 14.3077 6.69506C14.4649 6.87334 14.5625 6.88554 14.7421 6.70388C16.0603 5.36785 17.3913 4.0447 18.7183 2.71749C19.1778 2.25791 19.4387 2.25791 19.8894 2.71749C20.174 3.0076 20.4578 3.29794 20.7406 3.58851C21.1052 3.96675 21.1073 4.27381 20.7406 4.63917C18.4097 6.9723 16.079 9.30498 13.7486 11.6372C13.5195 11.867 13.2742 11.9856 12.9529 11.8636C12.6317 11.7416 12.5334 11.465 12.5314 11.1505C12.5267 10.3974 12.5314 9.64503 12.5314 8.89263L12.5321 8.89331ZM13.3711 10.8523C13.4775 10.7513 13.5453 10.6896 13.6103 10.6245L19.4333 4.80049C19.6007 4.63307 19.7613 4.46157 19.9368 4.30093C20.0724 4.17824 20.0873 4.07588 19.9511 3.94574C19.7955 3.8028 19.6488 3.65045 19.5119 3.48955C19.3676 3.31399 19.2693 3.30789 19.0999 3.48006C17.7512 4.84342 16.3958 6.20047 15.0335 7.55118C14.6866 7.89756 14.3673 7.89891 14.0231 7.55118C13.8197 7.34783 13.63 7.12075 13.4341 6.90452L13.3664 6.95807L13.3711 10.8523Z" fill="#3489EF"/>
</g>
<defs>
<clipPath id="clip0_1914_4975">
<rect width="26" height="26" fill="white"/>
</clipPath>
</defs>
</svg>
