<svg width="28" height="28" viewBox="0 0 28 28" fill="none" xmlns="http://www.w3.org/2000/svg">
<g clip-path="url(#clip0_1914_4981)">
<path d="M19.8509 28C19.7218 27.957 19.5906 27.9205 19.4652 27.8702C18.7593 27.5851 18.3714 26.9588 18.3794 26.0808C18.3794 25.8738 18.3371 25.7848 18.1133 25.8081C17.9129 25.8202 17.7121 25.8202 17.5117 25.8081C16.5733 25.7914 15.9586 24.9193 16.2758 24.0406C16.3283 23.8948 16.3137 23.8263 16.1985 23.7234C15.8149 23.3807 15.6698 22.9483 15.7923 22.4416C15.8237 22.3111 15.7967 22.2542 15.6698 22.1958C15.1594 21.9625 14.8765 21.5564 14.8802 20.9927C14.8838 20.4291 15.1667 20.0244 15.6822 19.7954C15.8193 19.7342 15.8179 19.6649 15.7931 19.5431C15.6144 18.6915 16.2087 17.9557 17.08 17.9382C17.1435 17.9382 17.2076 17.9382 17.2711 17.9382C17.4629 17.9382 17.6692 17.9827 17.8413 17.9244C18.0498 17.8515 17.9142 17.5861 18.0258 17.4344C18.0673 17.376 18.0746 17.2849 18.1249 17.2426C18.4166 16.9969 18.3758 16.6666 18.3758 16.3406C18.3758 13.7623 18.3707 11.1832 18.3802 8.60418C18.3802 8.36136 18.3204 8.30376 18.0812 8.3074C17.0429 8.32126 16.0038 8.31543 14.9647 8.31251C13.6325 8.30886 12.6934 7.37189 12.6868 6.04407C12.6868 5.79762 12.6868 5.55189 12.6868 5.30543C12.6868 5.08084 12.7729 4.9073 12.9923 4.84241C13.1236 4.80303 13.1265 4.72647 13.1258 4.62366C13.1258 3.64876 13.1258 2.67314 13.1258 1.69824C13.1295 1.49062 13.0525 1.28966 12.9111 1.13762C12.7697 0.985586 12.5748 0.894323 12.3674 0.88303C12.1297 0.869905 11.9299 0.822511 11.8424 0.577511C11.7462 0.312823 11.9154 0.154593 12.0889 0.00219727H25.7571C25.7749 0.021116 25.7956 0.0371104 25.8184 0.0495927C26.7072 0.341259 27.1229 0.907822 27.1243 1.83386C27.1258 2.75991 27.1243 3.67501 27.1243 4.59522C27.1243 4.72355 27.1331 4.80959 27.284 4.8548C27.4794 4.91386 27.5618 5.07866 27.5633 5.27991C27.5633 5.51713 27.5633 5.75411 27.5633 5.99084C27.5633 7.3923 26.6358 8.31324 25.2299 8.3147H22.1113C21.983 8.3147 21.8692 8.28918 21.8699 8.49845C21.8763 11.1774 21.8763 13.8566 21.8699 16.5361C21.8633 16.5845 21.8723 16.6339 21.8956 16.6769C21.919 16.7199 21.9554 16.7544 21.9997 16.7752C22.1531 16.8581 22.2865 16.9735 22.3906 17.1133C22.4948 17.2531 22.5672 17.4139 22.6028 17.5846C22.6822 17.939 22.9046 18.1555 23.1226 18.4217C23.4333 18.8016 23.7789 18.8439 24.1909 18.8154C24.2455 18.8125 24.3003 18.8125 24.3549 18.8154C24.4337 18.8198 24.4847 18.8059 24.5124 18.7119C24.5926 18.4377 24.8041 18.3728 25.0659 18.3757C25.8315 18.3823 26.5971 18.3874 27.3628 18.3757C27.6296 18.3706 27.8418 18.4319 27.9964 18.6543V25.1016C27.8666 25.2394 27.7463 25.3787 27.5261 25.3772C26.6693 25.3706 25.8125 25.3772 24.9558 25.3772C24.7881 25.3772 24.6196 25.3196 24.573 25.1657C24.5 24.9317 24.3542 24.928 24.1624 24.9375C23.9437 24.9492 23.7249 24.9419 23.5062 24.9375C23.4243 24.9296 23.3423 24.9519 23.2758 25.0002C22.9312 25.2781 22.4925 25.4118 22.0515 25.3735C21.9057 25.3641 21.8634 25.4217 21.8685 25.5609C21.878 25.8067 21.8758 26.0531 21.8685 26.2996C21.8587 26.657 21.7391 27.0027 21.5259 27.2897C21.3127 27.5767 21.0163 27.7911 20.677 27.9038L20.3941 27.9985L19.8509 28ZM13.7769 0.87501C13.9412 1.22029 14.0184 1.6006 14.0015 1.98261C13.9942 2.83939 14.0015 3.69616 13.9949 4.55293C13.9949 4.74251 14.0197 4.83511 14.2421 4.81761C14.524 4.79939 14.8068 4.79939 15.0887 4.81761C15.2703 4.82709 15.3176 4.76657 15.3155 4.58939C15.3074 3.70491 15.3155 2.82116 15.3155 1.93741C15.3155 1.30959 15.3155 1.32199 15.9323 1.30741C16.1606 1.3023 16.197 1.38032 16.1948 1.58595C16.1846 2.45147 16.1905 3.31699 16.1905 4.18324C16.1905 4.82126 16.1905 4.81397 16.827 4.81907C17.0173 4.81907 17.0728 4.77095 17.0698 4.57772C17.0596 3.70272 17.0655 2.82772 17.0655 1.95272C17.0655 1.30011 17.0655 1.30814 17.7217 1.30886C17.9084 1.30886 17.9456 1.37157 17.9405 1.5422C17.9324 2.4172 17.9405 3.2922 17.9405 4.1672C17.9405 4.82345 17.9405 4.81543 18.5887 4.8198C18.7958 4.8198 18.8206 4.74178 18.8191 4.56605C18.8111 3.69105 18.8191 2.81605 18.8191 1.94105C18.8191 1.30595 18.8191 1.31397 19.4593 1.30886C19.6555 1.30886 19.7007 1.36647 19.6985 1.55386C19.689 2.42886 19.6941 3.30386 19.6941 4.17886C19.6941 4.82053 19.6941 4.80959 20.3263 4.82053C20.545 4.82418 20.5749 4.74761 20.5735 4.55438C20.564 3.68886 20.5691 2.82261 20.5691 1.95709C20.5691 1.30084 20.5691 1.30886 21.221 1.30959C21.4011 1.30959 21.4499 1.36064 21.4478 1.53855C21.4397 2.4223 21.4478 3.30678 21.4478 4.19053C21.4478 4.82345 21.4478 4.8147 22.0916 4.81907C22.2929 4.81907 22.3286 4.75199 22.3264 4.5697C22.3176 3.6947 22.3264 2.8197 22.3264 1.9447C22.3264 1.30595 22.3264 1.31324 22.963 1.30814C23.1525 1.30814 23.2087 1.35553 23.2058 1.54949C23.1956 2.42449 23.2014 3.29949 23.2014 4.17449C23.2014 4.82709 23.2014 4.8198 23.8576 4.81907C24.0443 4.81907 24.0822 4.75709 24.0808 4.58574C24.0728 3.70199 24.0808 2.81751 24.0808 1.93376C24.0808 1.30886 24.0808 1.31761 24.7013 1.30886C24.9004 1.30886 24.9638 1.35116 24.9609 1.56189C24.9492 2.56449 24.9609 3.56709 24.9521 4.56897C24.9521 4.7498 24.9828 4.83147 25.1862 4.81834C25.4683 4.80049 25.7513 4.80049 26.0335 4.81834C26.2296 4.83001 26.2748 4.7622 26.2726 4.57407C26.2632 3.66261 26.2726 2.75116 26.2683 1.8397C26.2683 1.18345 25.9591 0.876467 25.2941 0.876467H13.7769V0.87501ZM20.1353 5.68751H15.2178C14.735 5.68751 14.2523 5.69553 13.7696 5.68314C13.5983 5.67949 13.5604 5.73418 13.5574 5.90189C13.5421 6.90376 14.0679 7.44043 15.0734 7.44043H25.2088C26.1698 7.44043 26.6839 6.91397 26.6926 5.95074C26.6926 5.72834 26.6248 5.68532 26.4185 5.68605C24.3243 5.69043 22.2294 5.68751 20.1353 5.68751ZM21.8743 22.2338C21.8743 22.9491 21.8743 23.6411 21.8743 24.333C21.8743 24.4132 21.8597 24.4971 21.9888 24.5015C22.2389 24.5095 22.5087 24.5241 22.6881 24.3389C22.9564 24.0618 23.2714 24.0472 23.6163 24.0603C23.835 24.0713 24.0538 24.0516 24.2725 24.0662C24.4483 24.0771 24.5044 24.0239 24.5037 23.8416C24.4959 22.5291 24.4959 21.2166 24.5037 19.9041C24.5037 19.7145 24.4381 19.678 24.2689 19.6853C23.9233 19.697 23.5769 19.6853 23.2306 19.6853C23.03 19.6853 22.8543 19.6168 22.7931 19.4221C22.6983 19.11 22.4628 18.9503 22.2024 18.8154C21.9881 18.7039 21.8663 18.5522 21.867 18.3014C21.8624 18.1279 21.8266 17.9568 21.7613 17.7961C21.6884 17.597 21.5593 17.4913 21.3296 17.4949C20.6464 17.5037 19.9632 17.4949 19.2799 17.4993C18.9569 17.4993 18.8133 17.6451 18.8118 17.9674C18.8118 18.6966 18.8118 19.4257 18.8118 20.1549C18.8118 20.2118 18.7819 20.2811 18.8454 20.327C19.3959 20.1119 19.6846 19.662 19.6854 19.0225C19.6854 18.3531 19.6854 18.3604 20.3584 18.3663C20.5392 18.3663 20.5698 18.4341 20.5633 18.5894C20.5531 18.8264 20.5553 19.0633 20.5633 19.3003C20.5961 20.3722 21.2312 21.1845 22.1674 21.3814C22.3607 21.4222 22.637 21.3267 22.7304 21.5199C22.812 21.6905 22.7435 21.9312 22.753 22.1397C22.7588 22.2717 22.7121 22.3227 22.5816 22.3074C22.3541 22.2833 22.1281 22.2578 21.8743 22.2338ZM20.9993 12.4571C20.9993 11.1548 20.9949 9.85178 21.0037 8.54949C21.0037 8.35699 20.9534 8.30157 20.7616 8.30814C20.3241 8.32199 19.8866 8.31834 19.4491 8.30814C19.3033 8.30814 19.2449 8.34167 19.2457 8.50282C19.25 11.1448 19.25 13.7864 19.2457 16.4274C19.2457 16.5834 19.2909 16.6301 19.4455 16.6265C19.8735 16.617 20.3022 16.6133 20.7295 16.6265C20.9359 16.6338 21.0066 16.5849 21.0044 16.3618C20.9935 15.0624 20.9993 13.7594 20.9993 12.4571ZM25.3743 21.8466C25.3743 22.6574 25.3794 23.4675 25.3699 24.2783C25.3699 24.4599 25.4232 24.5088 25.5996 24.5037C26.0459 24.492 26.4921 24.4956 26.9384 24.5037C27.0762 24.5037 27.128 24.4694 27.1272 24.3214C27.1224 22.6919 27.1224 21.062 27.1272 19.4316C27.1272 19.2857 27.0806 19.2456 26.9398 19.2478C26.5023 19.2558 26.0648 19.2609 25.6273 19.2478C25.4283 19.2405 25.3634 19.2887 25.3678 19.4994C25.3823 20.2803 25.3743 21.0634 25.3743 21.8466ZM20.9993 24.1507C20.9993 23.458 20.9949 22.7653 20.9993 22.0741C20.9993 21.9144 20.9672 21.8035 20.8272 21.7095C20.6389 21.5799 20.476 21.4168 20.3467 21.2282C20.2125 21.0379 20.0922 20.8367 19.9661 20.6405L19.3623 21.0547C19.3367 21.0669 19.3123 21.0816 19.2894 21.0984C19.2536 21.1284 19.2261 21.1671 19.2095 21.2108C19.1929 21.2544 19.1877 21.3016 19.1945 21.3478C19.2013 21.394 19.2199 21.4377 19.2483 21.4747C19.2768 21.5118 19.3143 21.5409 19.3572 21.5593C19.9799 21.8633 20.2723 22.5422 20.0332 23.1868C19.9697 23.3589 20.0128 23.4325 20.1316 23.5448C20.4962 23.8897 20.6362 24.3177 20.51 24.8114C20.3839 25.305 20.066 25.6572 19.5621 25.7593C19.2872 25.814 19.2253 25.9153 19.2384 26.1778C19.2661 26.7305 19.6161 27.1257 20.1221 27.1257C20.6282 27.1257 20.992 26.7305 20.9971 26.1778C21.0015 25.4982 20.9993 24.8245 20.9993 24.1537V24.1507ZM17.9303 23.1875C18.2037 23.1875 18.4771 23.1875 18.7506 23.1875C19.0524 23.1824 19.2435 23.0132 19.2471 22.7573C19.2508 22.5014 19.0605 22.3198 18.763 22.3154C18.2161 22.3106 17.6692 22.3106 17.1223 22.3154C16.8197 22.3154 16.6302 22.4882 16.6265 22.7449C16.6229 23.0016 16.819 23.1824 17.1369 23.1882C17.4016 23.1904 17.6634 23.1875 17.9303 23.1875ZM18.3911 24.0625C18.1082 24.0625 17.826 24.0581 17.5431 24.0625C17.2478 24.0691 17.0574 24.2514 17.064 24.5088C17.0706 24.7662 17.255 24.9309 17.5372 24.9339C18.0929 24.9397 18.6487 24.9397 19.2048 24.9339C19.4965 24.9339 19.6912 24.7436 19.6846 24.4876C19.6781 24.2317 19.4936 24.0698 19.2107 24.0625C18.9278 24.0552 18.6638 24.0632 18.3925 24.0625H18.3911ZM17.0472 21.4375C17.3469 21.4375 17.6466 21.4375 17.9463 21.4375C18.0119 21.4375 18.1607 21.447 18.0571 21.3128C17.9273 21.1437 17.9288 20.9584 17.939 20.7689C17.9478 20.623 17.9113 20.5603 17.748 20.5632C17.2375 20.5734 16.7308 20.5632 16.2225 20.5691C15.9462 20.5727 15.7573 20.7521 15.7515 20.9949C15.7457 21.2508 15.936 21.4324 16.2298 21.4404C16.5018 21.4419 16.7745 21.4375 17.0472 21.4375ZM17.4271 19.6875C17.5177 19.6813 17.6086 19.6813 17.6991 19.6875C17.888 19.713 17.9434 19.6438 17.9419 19.4505C17.9368 18.8103 17.9419 18.8096 17.2857 18.8103C17.204 18.8103 17.1223 18.8059 17.0414 18.8103C16.9317 18.8164 16.8281 18.863 16.7509 18.9412C16.6737 19.0194 16.6283 19.1235 16.6236 19.2332C16.6202 19.348 16.6626 19.4594 16.7414 19.5429C16.8201 19.6265 16.9288 19.6753 17.0436 19.6788C17.1726 19.6941 17.2988 19.6853 17.4271 19.6853V19.6875Z" fill="#3489EF"/>
<path d="M0 14.2734C0.153854 14.0496 0.364583 13.9934 0.633646 13.9949C2.50979 14.0044 4.38667 13.9949 6.26281 14.0051C6.4874 14.0051 6.56979 13.9715 6.57417 13.7134C6.58073 13.3802 6.49688 13.1702 6.21688 12.9485C5.7454 12.5735 5.42057 12.0448 5.29903 11.4547C5.1775 10.8646 5.26699 10.2506 5.55188 9.71978C5.83311 9.18592 6.28968 8.76525 6.84473 8.52858C7.39978 8.29191 8.01942 8.25369 8.59935 8.42035C9.17928 8.58701 9.68409 8.94838 10.0288 9.44362C10.3735 9.93887 10.5371 10.5377 10.492 11.1395C10.4256 11.9554 10.0457 12.608 9.37635 13.0878C9.23052 13.195 9.0949 13.8046 9.19771 13.9511C9.26115 14.0408 9.36688 13.9956 9.45292 13.9956C11.3385 13.9985 13.2242 13.9985 15.1098 13.9956C15.629 13.9956 15.75 14.1181 15.75 14.6402C15.75 15.4058 15.75 16.1714 15.75 16.9356C15.75 17.3454 15.5991 17.5087 15.1893 17.4898C14.918 17.4767 14.8298 17.5445 14.8079 17.8361C14.6307 20.1323 14.4295 22.4299 14.2362 24.7231C14.1633 25.6214 14.0773 26.519 14.0175 27.421C14.0007 27.6675 13.9271 27.8585 13.7258 27.9985H2.02344C1.86812 27.8687 1.75875 27.728 1.74052 27.5042C1.4751 24.2419 1.19875 20.9803 0.932605 17.7187C0.918021 17.5401 0.859688 17.4752 0.686876 17.5C0.409063 17.5364 0.167708 17.4737 0 17.2273V14.2734ZM7.86406 25.8125C9.56812 25.8125 11.2715 25.8081 12.9748 25.8176C13.1994 25.8176 13.2832 25.7782 13.2993 25.5259C13.362 24.5445 13.4568 23.5652 13.5384 22.5852C13.6733 20.9701 13.8053 19.3543 13.946 17.7399C13.9621 17.5503 13.9161 17.492 13.7178 17.4934C12.4053 17.5022 11.0928 17.5 9.78031 17.4934C9.63448 17.4934 9.56156 17.527 9.5025 17.6764C9.38031 18.0078 9.15965 18.2938 8.87016 18.4961C8.58066 18.6984 8.23619 18.8073 7.88302 18.8081C7.15385 18.8132 6.52677 18.3881 6.23948 17.6713C6.18625 17.5394 6.12719 17.4927 5.98646 17.4934C4.65646 17.4983 3.32646 17.4983 1.99646 17.4934C1.81052 17.4934 1.78792 17.5663 1.80177 17.7187C1.84917 18.2292 1.88636 18.7352 1.92865 19.2434C2.10438 21.339 2.28521 23.4354 2.45073 25.5318C2.46823 25.7563 2.52802 25.8169 2.75115 25.8154C4.4574 25.8081 6.16073 25.8125 7.86406 25.8125ZM3.70781 14.875C2.84229 14.875 1.97677 14.8808 1.11198 14.8706C0.916562 14.8706 0.866249 14.9253 0.872083 15.1149C0.885937 15.5524 0.882291 15.9899 0.872083 16.4274C0.872083 16.579 0.91 16.6301 1.06896 16.6294C2.7176 16.6243 4.36625 16.6294 6.01489 16.6294C6.08344 16.6294 6.16073 16.6498 6.19865 16.5564C6.35979 16.1532 6.68063 15.7981 6.56323 15.3125C6.55298 15.2585 6.55298 15.2031 6.56323 15.1492C6.59313 14.9428 6.52458 14.8706 6.30146 14.8743C5.43667 14.8837 4.57114 14.875 3.70635 14.875H3.70781ZM12.0451 14.875C11.1701 14.875 10.2951 14.875 9.4201 14.875C9.33771 14.875 9.21302 14.8094 9.1875 14.9771C9.09781 15.5604 9.26698 16.0818 9.56375 16.5732C9.60604 16.6461 9.67604 16.6206 9.73583 16.6206C11.3845 16.6206 13.0331 16.6206 14.6818 16.625C14.8407 16.625 14.8808 16.5739 14.8779 16.423C14.8692 15.9855 14.8655 15.548 14.8779 15.1105C14.8837 14.9209 14.8327 14.864 14.638 14.867C13.774 14.8808 12.9084 14.875 12.0436 14.875H12.0451ZM7.87646 26.6875C6.19062 26.6875 4.50455 26.6875 2.81823 26.6875C2.70812 26.6875 2.55063 26.6219 2.56594 26.8523C2.5776 27.0273 2.58927 27.1286 2.81823 27.1286C6.1899 27.1204 9.56205 27.1204 12.9347 27.1286C13.1629 27.1286 13.1753 27.0273 13.187 26.853C13.2023 26.6226 13.0455 26.6875 12.9347 26.6875C11.2479 26.686 9.56132 26.686 7.875 26.6875H7.87646ZM7.43896 15.3606C7.68031 15.3147 7.90198 15.2775 8.11417 15.3322C8.31177 15.3832 8.31687 15.2972 8.31614 15.147C8.31177 14.272 8.31614 13.397 8.31614 12.522C8.31614 12.0033 8.31614 11.4846 8.31614 10.9659C8.31614 10.7392 8.20896 10.5802 7.99167 10.5153C7.90818 10.4889 7.81843 10.4902 7.73569 10.5188C7.65296 10.5474 7.58164 10.6019 7.53229 10.6743C7.44042 10.788 7.44114 10.9258 7.44114 11.0636C7.44114 12.4106 7.44114 13.7574 7.44114 15.1039L7.43896 15.3606ZM6.56396 12.0407C6.56396 11.6761 6.56396 11.3342 6.56396 10.9922C6.56979 10.2178 7.1276 9.63155 7.8626 9.62571C8.61219 9.61915 9.18094 10.2054 9.1875 10.9929C9.1875 11.3342 9.1875 11.6754 9.1875 12.0451C9.79927 11.4319 9.75115 10.3439 9.11458 9.70373C8.952 9.54059 8.75881 9.41114 8.5461 9.32282C8.33338 9.23449 8.10532 9.18902 7.875 9.18902C7.64468 9.18902 7.41662 9.23449 7.2039 9.32282C6.99119 9.41114 6.798 9.54059 6.63542 9.70373C5.87781 10.4664 6.06302 11.5996 6.5625 12.0407H6.56396ZM8.75146 17.072C8.75377 16.8984 8.70443 16.7281 8.6097 16.5827C8.51497 16.4373 8.37914 16.3233 8.21947 16.2553C8.0598 16.1873 7.88351 16.1683 7.71302 16.2007C7.54252 16.2331 7.38552 16.3155 7.26198 16.4374C7.13844 16.5593 7.05394 16.7152 7.01922 16.8853C6.98451 17.0553 7.00114 17.2318 7.06701 17.3924C7.13288 17.553 7.24501 17.6903 7.38914 17.787C7.53328 17.8837 7.70291 17.9353 7.87646 17.9353C8.10555 17.9331 8.32476 17.8417 8.48757 17.6805C8.65039 17.5193 8.744 17.301 8.74854 17.072H8.75146Z" fill="#3489EF"/>
<path d="M9.62451 2.63672C9.62494 2.69418 9.61351 2.75112 9.59094 2.80396C9.56836 2.85681 9.53513 2.90443 9.49332 2.94384C9.4515 2.98326 9.40201 3.01363 9.34792 3.03305C9.29384 3.05248 9.23633 3.06053 9.17899 3.05672C9.00535 3.052 8.83256 3.08272 8.67119 3.14701C8.50981 3.21129 8.36324 3.3078 8.24041 3.43063C8.11757 3.55346 8.02107 3.70004 7.95678 3.86142C7.89249 4.02279 7.86177 4.19557 7.86649 4.36922C7.86979 4.42661 7.86127 4.48407 7.84146 4.53803C7.82165 4.592 7.79097 4.64132 7.75132 4.68295C7.71168 4.72458 7.66391 4.75763 7.61097 4.78004C7.55804 4.80246 7.50106 4.81378 7.44358 4.81328C7.19639 4.81839 7.01774 4.63682 6.99806 4.35974C6.93972 3.54234 6.51535 3.11578 5.71108 3.06474C5.42889 3.04724 5.24951 2.8788 5.24806 2.62724C5.2466 2.37568 5.42597 2.20651 5.7067 2.18974C6.51535 2.13651 6.94264 1.70995 6.99806 0.898386C7.01701 0.618386 7.19055 0.43828 7.4392 0.441197C7.68785 0.444114 7.8541 0.624948 7.8716 0.907136C7.92191 1.70922 8.34993 2.12995 9.1717 2.18974C9.45097 2.20578 9.63108 2.38807 9.62451 2.63672ZM7.43701 2.94734C7.48222 2.94734 7.7892 2.63526 7.7666 2.61193C7.66014 2.50474 7.54785 2.32537 7.4341 2.32537C7.32035 2.32537 7.20951 2.50693 7.10451 2.61703C7.08483 2.63818 7.39545 2.94807 7.4392 2.94734H7.43701Z" fill="#3489EF"/>
<path d="M27.5634 13.5662C27.5656 13.6238 27.5558 13.6812 27.5344 13.7347C27.5131 13.7883 27.4808 13.8368 27.4395 13.877C27.3983 13.9173 27.3491 13.9485 27.2951 13.9685C27.241 13.9886 27.1834 13.9971 27.1259 13.9935C26.9527 13.9881 26.7803 14.018 26.619 14.0813C26.4577 14.1446 26.311 14.24 26.1877 14.3617C26.0644 14.4834 25.9672 14.6289 25.9018 14.7893C25.8365 14.9498 25.8044 15.1218 25.8075 15.295C25.8117 15.3546 25.8032 15.4145 25.7826 15.4706C25.7621 15.5267 25.7298 15.5778 25.6881 15.6205C25.6464 15.6633 25.5961 15.6967 25.5405 15.7187C25.4849 15.7406 25.4253 15.7506 25.3656 15.7479C25.1192 15.742 24.9544 15.5597 24.9376 15.2761C24.8982 14.606 24.5329 14.1481 23.9306 14.0234C23.8249 14.0015 23.7119 14.0088 23.6047 13.9971C23.4945 13.9918 23.3903 13.9451 23.3131 13.8663C23.2359 13.7874 23.1914 13.6823 23.1884 13.572C23.1847 13.5148 23.193 13.4574 23.2128 13.4036C23.2326 13.3498 23.2634 13.3007 23.3033 13.2595C23.3432 13.2183 23.3913 13.1859 23.4444 13.1644C23.4976 13.1428 23.5547 13.1327 23.612 13.1345C23.7875 13.1412 23.9625 13.1117 24.1262 13.048C24.2899 12.9843 24.4388 12.8876 24.5636 12.764C24.6884 12.6405 24.7865 12.4926 24.8518 12.3295C24.9172 12.1665 24.9484 11.9918 24.9435 11.8162C24.9432 11.7596 24.954 11.7035 24.9754 11.6511C24.9968 11.5987 25.0283 11.551 25.0681 11.5108C25.1079 11.4706 25.1553 11.4386 25.2075 11.4167C25.2596 11.3948 25.3156 11.3833 25.3722 11.3831C25.4288 11.3828 25.4849 11.3936 25.5373 11.415C25.5897 11.4364 25.6373 11.4679 25.6776 11.5077C25.7178 11.5475 25.7498 11.5949 25.7717 11.6471C25.7936 11.6992 25.805 11.7552 25.8053 11.8118C25.8003 11.9873 25.8312 12.162 25.8962 12.325C25.9612 12.4881 26.0589 12.6361 26.1833 12.76C26.3077 12.8838 26.4562 12.9809 26.6195 13.0452C26.7829 13.1095 26.9577 13.1396 27.1331 13.1338C27.1905 13.1312 27.2478 13.1406 27.3013 13.1614C27.3549 13.1823 27.4034 13.2141 27.444 13.2548C27.4845 13.2955 27.516 13.3442 27.5366 13.3979C27.5571 13.4515 27.5663 13.5088 27.5634 13.5662ZM25.3941 13.2162C25.2628 13.3438 25.1505 13.4459 25.0477 13.5567C25.0251 13.5808 25.3394 13.8885 25.3817 13.887C25.424 13.8856 25.7317 13.5749 25.7098 13.5501C25.607 13.4349 25.4991 13.327 25.3941 13.2162Z" fill="#3489EF"/>
</g>
<defs>
<clipPath id="clip0_1914_4981">
<rect width="28" height="28" fill="white"/>
</clipPath>
</defs>
</svg>
