<svg width="28" height="18" viewBox="0 0 28 18" fill="none" xmlns="http://www.w3.org/2000/svg">
<g clip-path="url(#clip0_1914_4987)">
<path d="M12.8801 0.0010797H23.6482C25.0907 0.0010797 25.7836 0.716979 25.7846 2.20472C25.7846 4.31615 25.7897 6.42654 25.7785 8.53693C25.7677 8.67631 25.7931 8.81614 25.8521 8.94224C25.911 9.06833 26.0015 9.17621 26.1144 9.25491C27.6803 10.464 28.3398 12.4666 27.834 14.4351C27.3616 16.2802 25.7775 17.7017 23.8778 17.9772C23.6608 18.0011 23.4425 18.0094 23.2244 18.0021H1.94718C0.741404 18.0021 0.00296469 17.2468 0.00195312 16.0026C0.00195312 11.3467 0.00195312 6.69073 0.00195312 2.03481C0.00195312 0.762563 0.753542 0.00419083 2.00889 0.00419083C5.63365 0.000737389 9.2574 -0.000301677 12.8801 0.0010797ZM12.9085 0.998778H2.11207C1.9664 0.998778 1.82074 0.998775 1.67609 1.00914C1.62734 1.00461 1.57828 1.01334 1.53388 1.03444C1.48948 1.05554 1.4513 1.08827 1.4232 1.12932C1.36453 1.24743 1.48389 1.30544 1.54762 1.36968C5.09482 5.00477 8.64372 8.63812 12.1943 12.2698C12.61 12.6945 13.1189 12.6842 13.5629 12.2946C13.6641 12.2055 13.7561 12.1061 13.8502 12.0097C17.2362 8.54177 20.6219 5.07211 24.0073 1.60071C24.1449 1.45981 24.4311 1.33238 24.3522 1.1345C24.2642 0.915895 23.9638 0.997741 23.7524 0.997741C20.1377 0.99705 16.5241 0.997397 12.9115 0.998778H12.9085ZM0.99227 2.21508C0.982155 2.39431 0.97204 2.4917 0.97204 2.58908C0.97204 7.06888 0.97204 11.549 0.97204 16.0295C0.97204 16.4564 1.09545 16.7848 1.48996 16.9619C1.92291 17.1578 2.51062 17.0655 2.79892 16.7734C4.77821 14.7469 6.75952 12.7218 8.74285 10.6981C8.96539 10.4712 8.9836 10.3521 8.74993 10.1148C6.25475 7.57861 3.76799 5.03584 1.28967 2.48652C1.21279 2.40985 1.13085 2.34044 0.995305 2.21508H0.99227ZM20.306 17.0303C20.2806 16.9877 20.2511 16.9478 20.218 16.9112C19.2939 16.1428 18.6872 15.0453 18.5196 13.8383C18.495 13.6413 18.4059 13.4586 18.2667 13.3203C17.6183 12.6686 16.9729 12.0118 16.3447 11.3435C16.1566 11.1446 16.0322 11.1363 15.8389 11.3435C15.3332 11.8823 14.8183 12.4065 14.2973 12.9266C13.4466 13.7792 12.3248 13.7782 11.4781 12.9266C10.9723 12.422 10.4665 11.9206 9.99112 11.3933C9.75745 11.1363 9.61684 11.1581 9.38418 11.3933C7.66453 13.1763 5.92464 14.9458 4.19487 16.7216C4.11294 16.8055 3.99863 16.8687 3.97334 17.0324L20.306 17.0303ZM24.7913 2.24719C24.7425 2.26873 24.696 2.29547 24.6527 2.32697C22.0813 4.9578 19.5096 7.58828 16.9375 10.2184C16.7777 10.3811 16.8363 10.4805 16.9638 10.6131C17.4139 11.0649 17.8621 11.5186 18.2991 11.9828C18.4933 12.19 18.554 12.162 18.6298 11.8864C19.3551 9.24973 21.8021 7.7796 24.415 8.41572C24.7336 8.49343 24.8196 8.42608 24.8135 8.09766C24.8024 6.24834 24.8085 4.40006 24.8074 2.55075C24.8105 2.46683 24.8014 2.38084 24.7943 2.24823L24.7913 2.24719ZM23.2476 9.25387C22.2487 9.24502 21.2871 9.64191 20.5733 10.3577C19.8595 11.0734 19.4516 12.0496 19.4391 13.0727C19.4304 13.5894 19.5219 14.1027 19.7085 14.5828C19.895 15.0629 20.1727 15.5004 20.5256 15.8697C20.8785 16.239 21.2995 16.5329 21.7642 16.7343C22.2288 16.9356 22.7279 17.0405 23.2324 17.0428C25.3254 17.0687 27.0642 15.2639 27.0592 13.1266C27.0575 12.6159 26.9575 12.1105 26.7649 11.6394C26.5724 11.1684 26.2911 10.7408 25.9371 10.3811C25.5831 10.0214 25.1634 9.73675 24.7019 9.54333C24.2404 9.34991 23.7462 9.25155 23.2476 9.25387Z" fill="#3489EF"/>
<path d="M2.03154 9.52221C2.03154 8.93996 2.02649 8.35771 2.03154 7.7765C2.03154 7.40353 2.2116 7.18285 2.49686 7.19218C2.82866 7.20358 2.97331 7.4315 2.97533 7.73402C2.98444 8.94618 2.98039 10.1594 2.96926 11.3726C2.96926 11.6834 2.8236 11.8999 2.48472 11.8978C2.19643 11.8978 2.03458 11.6906 2.03053 11.3052C2.0275 10.7105 2.03154 10.1169 2.03154 9.52221Z" fill="#3489EF"/>
<path d="M23.2475 9.90344C23.7003 9.90677 24.1474 10.0074 24.5599 10.1988C24.9724 10.3901 25.3411 10.668 25.6422 11.0144C25.9432 11.3609 26.17 11.7681 26.3078 12.2099C26.4455 12.6517 26.4913 13.1182 26.442 13.5793C26.4203 13.7961 26.3463 14.0039 26.2268 14.1843C26.1073 14.3646 25.946 14.5117 25.7573 14.6124C25.5686 14.7132 25.3585 14.7644 25.1457 14.7614C24.933 14.7585 24.7242 14.7015 24.5383 14.5956C24.4515 14.5356 24.3491 14.5035 24.2444 14.5035C24.1397 14.5035 24.0373 14.5356 23.9505 14.5956C23.6395 14.772 23.2775 14.8302 22.9286 14.7599C22.5797 14.6896 22.2663 14.4952 22.0437 14.2113C21.8185 13.9385 21.6893 13.5961 21.677 13.239C21.6648 12.882 21.77 12.5311 21.976 12.2428C22.1845 11.9492 22.4846 11.7371 22.8266 11.6416C23.1687 11.5461 23.5323 11.5729 23.8575 11.7175C23.9544 11.7672 24.0561 11.8065 24.1609 11.8346C24.7163 11.9382 24.8013 12.0273 24.8185 12.5982C24.8265 12.8582 24.8185 13.1162 24.8276 13.3793C24.8336 13.601 24.9095 13.7792 25.1634 13.772C25.394 13.7658 25.4588 13.6021 25.4739 13.3928C25.563 12.2034 24.7871 11.1135 23.7047 10.9239C22.4979 10.7074 21.3781 11.3974 21.0747 12.5495C20.9196 13.1105 20.9777 13.7108 21.2372 14.2298C21.4968 14.7487 21.9385 15.1478 22.4737 15.3467C22.5414 15.3737 22.6122 15.3923 22.676 15.4245C22.9238 15.5436 23.0634 15.7353 22.9794 16.0202C22.8955 16.3051 22.676 16.3973 22.4028 16.3372C21.9638 16.2296 21.556 16.0165 21.2133 15.7156C20.7036 15.2892 20.3348 14.7122 20.1574 14.0632C19.98 13.4141 20.0025 12.7249 20.2219 12.0895C20.4394 11.4466 20.8483 10.8898 21.3911 10.4976C21.9339 10.1055 22.5832 9.89762 23.2475 9.90344ZM23.8494 13.1752C23.8416 13.0139 23.7748 12.8615 23.6624 12.7483C23.55 12.635 23.4001 12.5692 23.2424 12.564C23.1635 12.5632 23.0853 12.5789 23.0126 12.6101C22.9398 12.6414 22.874 12.6875 22.8193 12.7457C22.7646 12.8039 22.722 12.873 22.6942 12.9486C22.6664 13.0242 22.654 13.1049 22.6578 13.1856C22.6538 13.2662 22.6665 13.3468 22.6949 13.422C22.7233 13.4973 22.7669 13.5656 22.8228 13.6225C22.8788 13.6793 22.9457 13.7235 23.0194 13.7521C23.0931 13.7808 23.1719 13.7932 23.2505 13.7886C23.4087 13.7864 23.5598 13.7211 23.6717 13.6065C23.7835 13.492 23.8473 13.3372 23.8494 13.1752Z" fill="#3489EF"/>
</g>
<defs>
<clipPath id="clip0_1914_4987">
<rect width="28" height="18" fill="white"/>
</clipPath>
</defs>
</svg>
