<svg width="21" height="16" viewBox="0 0 21 16" fill="none" xmlns="http://www.w3.org/2000/svg">
<path d="M5.6233 3.2602C5.21472 3.19211 4.8283 3.46812 4.7602 3.8767C4.69211 4.28528 4.96812 4.6717 5.3767 4.7398L7.7191 5.1302C8.23614 5.21637 8.76386 5.21637 9.2809 5.1302L11.6233 4.7398C12.0319 4.6717 12.3079 4.28528 12.2398 3.8767C12.1717 3.46812 11.7853 3.19211 11.3767 3.2602L9.0343 3.65061C8.68054 3.70956 8.31946 3.70956 7.9657 3.65061L5.6233 3.2602Z" fill="white"/>
<path d="M15.75 8C15.75 7.58579 16.0858 7.25 16.5 7.25H17.5C17.9142 7.25 18.25 7.58579 18.25 8C18.25 8.41421 17.9142 8.75 17.5 8.75H16.5C16.0858 8.75 15.75 8.41421 15.75 8Z" fill="white"/>
<path fill-rule="evenodd" clip-rule="evenodd" d="M20.5 12C20.5 14.2091 18.7091 16 16.5 16H4.5C2.29086 16 0.5 14.2091 0.5 12V4C0.5 1.79086 2.29086 0 4.5 0H16.5C18.7091 0 20.5 1.79086 20.5 4V12ZM4.5 1.5H16.5C17.8807 1.5 19 2.61929 19 4H16.5C14.2909 4 12.5 5.79086 12.5 8C12.5 10.2091 14.2909 12 16.5 12L19 12C19 13.3807 17.8807 14.5 16.5 14.5H4.5C3.11929 14.5 2 13.3807 2 12V4C2 2.61929 3.11929 1.5 4.5 1.5ZM19 5.5H16.5C15.1193 5.5 14 6.61929 14 8C14 9.38071 15.1193 10.5 16.5 10.5H19V5.5Z" fill="white"/>
</svg>
